<?xml version="1.0" encoding="utf-8"?>
<!-- Generator: Adobe Illustrator 24.0.1, SVG Export Plug-In . SVG Version: 6.00 Build 0)  -->
<svg version="1.1" id="N_x5F_SEDDI_x5F_LOGO" xmlns="http://www.w3.org/2000/svg" xmlns:xlink="http://www.w3.org/1999/xlink"
	 x="0px" y="0px" viewBox="0 0 256.4 80" style="enable-background:new 0 0 256.4 80;" xml:space="preserve">
<style type="text/css">
	.st0{fill:#FFFFFF;}
	.st1{fill:#009999;}
	.st2{fill:#A6A6A6;}
</style>
<g id="N_x5F_SEDDI_x5F_LOGO_1_">
	<g id="N_x5F_SEDDI">
		<g>
			<path class="st0" d="M87.2,9.5h7.2l15.9,19.6v-15c0-1.6-0.2-2.5-0.5-3c-0.5-0.5-1.2-0.7-2.3-0.7h-0.9V9.7h9v0.7h-0.9
				c-1.2,0-1.8,0.2-2.3,0.9c-0.2,0.5-0.5,1.4-0.5,2.8V36h-0.7L94.1,15v16.2c0,1.6,0.2,2.5,0.5,3c0.5,0.5,1.2,0.7,2.3,0.7h0.9v0.7h-9
				v-0.7h0.9c1.2,0,1.8-0.2,2.3-0.9c0.2-0.5,0.5-1.4,0.5-2.8V12.9c-0.5-0.5-0.7-0.7-0.9-1.2c-0.2-0.2-0.5-0.5-0.7-0.7
				c-0.2-0.2-0.5-0.2-0.7-0.5c-0.2,0-0.7-0.2-0.9-0.5c-0.5,0-0.9-0.2-1.6-0.2V9.5H87.2z"/>
			<path class="st0" d="M121.1,31.9c0.2,0,0.5,0,0.9,0.2c0.2,0,0.5,0.2,0.7,0.5c0.2,0.2,0.2,0.5,0.5,0.7c0,0.2,0.2,0.5,0.2,0.9
				s0,0.5-0.2,0.9c0,0.2-0.2,0.5-0.5,0.7c-0.2,0.2-0.5,0.2-0.7,0.5c-0.2,0-0.5,0.2-0.9,0.2c-0.2,0-0.5,0-0.9-0.2
				c-0.2,0-0.5-0.2-0.7-0.5c-0.2-0.2-0.2-0.5-0.5-0.7c0-0.2-0.2-0.5-0.2-0.9c0-0.2,0-0.7,0.2-0.9c0-0.2,0.2-0.5,0.5-0.7
				c0.2-0.2,0.5-0.2,0.7-0.5C120.5,31.9,120.9,31.9,121.1,31.9z"/>
			<path class="st0" d="M144,9v9h-0.7c-0.2-1.6-0.7-3-1.2-4.2c-0.2-0.5-0.7-0.9-1.2-1.4s-0.9-0.7-1.4-1.2c-0.5-0.2-1.2-0.5-1.6-0.7
				c-0.7-0.2-1.2-0.2-1.8-0.2c-0.7,0-1.2,0-1.8,0.2c-0.5,0.2-1.2,0.5-1.4,0.9c-0.5,0.5-0.7,0.7-0.9,1.4s-0.2,0.9-0.2,1.4
				c0,0.7,0.2,1.4,0.5,1.8c0.2,0.5,0.7,0.9,1.4,1.4c0.7,0.5,1.2,0.9,2.1,1.4c0.7,0.5,1.6,0.9,2.5,1.4c0.9,0.5,2.1,1.2,3,1.6
				c0.9,0.5,1.8,1.2,2.5,1.8s1.4,1.4,1.6,2.1c0.5,0.9,0.7,1.8,0.7,3c0,0.9-0.2,1.8-0.7,2.8c-0.5,0.9-0.9,1.6-1.6,2.3
				s-1.6,1.2-2.5,1.6c-0.9,0.5-2.1,0.7-3.2,0.7c-0.5,0-0.9,0-1.2,0c-0.2,0-0.7,0-0.9,0c-0.2,0-0.7,0-0.9-0.2c-0.2,0-0.7-0.2-1.2-0.5
				c-0.2,0-0.7-0.2-0.9-0.2c-0.2,0-0.7-0.2-0.9-0.2s-0.5,0-0.7-0.2c-0.2,0-0.2,0-0.5,0c-0.2,0-0.5,0-0.7,0.2
				c-0.2,0.2-0.2,0.7-0.5,1.2H129v-9h0.7c0.2,0.9,0.5,1.8,0.7,2.5c0.2,0.7,0.5,1.4,0.7,1.8c0.2,0.5,0.7,0.9,1.2,1.4
				c0.5,0.5,0.9,0.7,1.6,0.9c0.5,0.2,1.2,0.5,1.8,0.7c0.7,0.2,1.4,0.2,2.1,0.2c0.7,0,1.6,0,2.1-0.2c0.7-0.2,1.2-0.5,1.6-0.9
				c0.5-0.5,0.7-0.9,0.9-1.4c0.2-0.5,0.5-1.2,0.5-1.6c0-0.9-0.2-1.6-0.5-2.1c-0.2-0.5-0.9-1.2-1.4-1.6c-0.7-0.5-1.2-0.9-2.1-1.4
				c-0.7-0.5-1.6-0.9-2.5-1.4c-0.9-0.5-1.8-1.2-2.8-1.6c-0.9-0.5-1.6-1.2-2.3-1.6s-1.2-1.4-1.6-2.1s-0.7-1.8-0.7-2.8
				c0-0.9,0.2-1.8,0.5-2.5c0.5-0.9,0.9-1.6,1.6-2.1c0.7-0.7,1.4-1.2,2.3-1.4c0.9-0.5,1.8-0.5,3-0.5c1.4,0,2.8,0.2,4.4,0.9
				c0.7,0.2,1.2,0.5,1.6,0.5c0.2,0,0.7,0,0.9-0.2c0.2-0.2,0.5-0.7,0.5-1.2h0.2V9z"/>
			<path class="st0" d="M156.3,11.1v10.4h5.8c0.9,0,1.6,0,2.1-0.2c0.5-0.2,0.9-0.5,1.2-0.7c0.2-0.2,0.5-0.7,0.7-1.2
				c0-0.5,0.2-0.9,0.2-1.6h0.7v9h-0.7c0-0.7-0.2-1.2-0.2-1.6s-0.2-0.7-0.2-0.9s-0.2-0.5-0.5-0.7c-0.2-0.2-0.5-0.2-0.7-0.5
				c-0.2-0.2-0.7-0.2-0.9-0.2c-0.5,0-0.9,0-1.4,0h-5.8v8.5c0,1.2,0,1.8,0.2,2.1c0,0,0,0.2,0.2,0.2l0.2,0.2c0.2,0,0.2,0.2,0.5,0.2
				c0.2,0,0.5,0,0.9,0h4.4c0.7,0,1.4,0,1.8,0c0.5,0,0.9-0.2,1.4-0.2s0.7-0.2,0.9-0.5c0.2-0.2,0.7-0.5,0.9-0.7
				c0.5-0.5,0.7-0.9,1.2-1.4c0.5-0.7,0.9-1.4,1.2-2.1h0.7l-2.3,6.5h-20.1v-0.7h0.9c0.2,0,0.5,0,0.7,0c0.2,0,0.5-0.2,0.7-0.2
				s0.5-0.2,0.7-0.5c0.2-0.2,0.2-0.5,0.5-0.7c0.2-0.5,0.2-1.2,0.2-2.5V14.3c0-1.6-0.2-2.8-0.5-3c-0.5-0.5-1.2-0.7-2.3-0.7h-0.9V9.9
				h20.1v5.8h-0.5c-0.2-0.7-0.2-1.2-0.5-1.6c-0.2-0.5-0.2-0.9-0.5-1.2s-0.5-0.5-0.7-0.7c-0.2-0.2-0.5-0.2-0.9-0.5
				c-0.2-0.7-1.2-0.7-2.3-0.7H156.3z"/>
			<path class="st0" d="M172.7,35.6v-0.7h0.9c1.2,0,1.8-0.5,2.3-1.2c0.2-0.5,0.5-1.4,0.5-2.8V14.1c0-1.6-0.2-2.8-0.5-3
				c-0.5-0.5-1.2-0.9-2.3-0.9h-0.9V9.5h10.6c3.9,0,6.9,0.5,8.8,1.4c2.1,0.9,3.7,2.3,4.9,4.4c1.2,2.1,1.8,4.4,1.8,7.2
				c0,1.8-0.2,3.7-0.9,5.3c-0.7,1.6-1.6,3-2.8,4.2s-2.8,2.1-4.6,2.8c-1.8,0.7-3.9,0.9-6.2,0.9C184.2,35.6,172.7,35.6,172.7,35.6z
				 M180.1,33.7c1.6,0.5,3,0.5,4.2,0.5c1.4,0,2.8-0.2,4.2-0.9s2.3-1.4,3.2-2.3c0.9-0.9,1.6-2.3,2.1-3.7c0.5-1.4,0.9-2.8,0.9-4.6
				s-0.2-3.5-0.7-4.9c-0.5-1.4-1.2-2.8-2.1-3.7s-2.1-1.8-3.2-2.3c-1.2-0.5-3-0.7-4.6-0.7c-0.5,0-1.2,0-1.8,0.2
				c-0.7,0-1.4,0.2-2.1,0.5V33.7z"/>
			<path class="st0" d="M201.1,35.6v-0.7h0.9c1.2,0,1.8-0.5,2.3-1.2c0.2-0.5,0.5-1.4,0.5-2.8V14.1c0-1.6-0.2-2.8-0.5-3
				c-0.5-0.5-1.2-0.9-2.3-0.9h-0.9V9.5h10.6c3.9,0,6.9,0.5,8.8,1.4c2.1,0.9,3.7,2.3,4.9,4.4s1.8,4.4,1.8,7.2c0,1.8-0.2,3.7-0.9,5.3
				c-0.7,1.6-1.6,3-2.8,4.2s-2.8,2.1-4.6,2.8c-1.8,0.7-3.9,0.9-6.2,0.9C212.6,35.6,201.1,35.6,201.1,35.6z M208.5,33.7
				c1.6,0.5,3,0.5,4.2,0.5c1.4,0,2.8-0.2,4.2-0.9c1.4-0.7,2.3-1.4,3.2-2.3c0.9-0.9,1.6-2.3,2.1-3.7c0.5-1.4,0.7-3,0.7-4.9
				c0-1.8-0.2-3.5-0.7-4.9c-0.5-1.4-1.2-2.8-2.1-3.7c-0.9-0.9-2.1-1.8-3.2-2.3c-1.4-0.2-2.8-0.5-4.4-0.5c-0.5,0-1.2,0-1.8,0.2
				c-0.7,0-1.4,0.2-2.1,0.5C208.5,11.8,208.5,33.7,208.5,33.7z"/>
			<path class="st0" d="M241,34.9v0.7H230v-0.7h0.9c1.2,0,1.8-0.2,2.3-0.9c0.2-0.5,0.5-1.4,0.5-3V14.1c0-0.7,0-1.2,0-1.4
				c0-0.2,0-0.7-0.2-0.9c0-0.2-0.2-0.5-0.2-0.7c-0.2-0.2-0.2-0.2-0.5-0.5c-0.5-0.2-1.2-0.5-1.8-0.5H230V9.5H241v0.7h-0.9
				c-1.2,0-1.8,0.2-2.3,0.9c-0.2,0.5-0.5,1.4-0.5,3v16.9c0,0.7,0,1.2,0,1.4c0,0.5,0,0.7,0.2,0.9c0.2,0.2,0.2,0.5,0.2,0.7
				c0.2,0.2,0.2,0.2,0.5,0.5c0.5,0.2,1.2,0.5,1.8,0.5H241z"/>
		</g>
		<g>
			<path class="st0" d="M82.6,56.8c-0.7-0.5-1.2-0.9-1.6-1.4c-0.5-0.7-0.5-1.4-0.5-2.1c0-0.7,0.2-1.4,0.5-2.1
				c0.5-0.7,0.9-1.2,1.6-1.4c0.7-0.5,1.4-0.5,2.3-0.5c0.7,0,1.2,0,1.8,0.2c0.5,0.2,0.9,0.5,1.4,0.9l-0.9,0.9
				c-0.7-0.7-1.4-0.9-2.1-0.9c-0.5,0-1.2,0.2-1.4,0.5c-0.5,0.2-0.7,0.5-0.9,0.9s-0.5,0.9-0.5,1.4c0,0.5,0.2,0.9,0.5,1.4
				c0.2,0.5,0.7,0.7,0.9,0.9c0.5,0.2,0.9,0.5,1.4,0.5c0.9,0,1.6-0.2,2.1-0.9l0.9,0.9c-0.5,0.5-0.9,0.7-1.4,0.9
				c-0.7,0.2-1.4,0.2-2.1,0.2C84,57.3,83.3,57.3,82.6,56.8z"/>
			<path class="st0" d="M90.7,56.8c-0.7-0.5-1.2-0.9-1.6-1.4c-0.5-0.7-0.5-1.4-0.5-2.1c0-0.7,0.2-1.4,0.5-2.1
				c0.5-0.7,0.9-1.2,1.6-1.4c0.7-0.5,1.4-0.5,2.3-0.5s1.6,0.2,2.3,0.5c0.7,0.5,1.2,0.9,1.6,1.4c0.5,0.7,0.5,1.4,0.5,2.1
				c0,0.7-0.2,1.4-0.5,2.1c-0.5,0.7-0.9,1.2-1.6,1.4c-0.7,0.5-1.6,0.5-2.3,0.5C92,57.3,91.3,57.3,90.7,56.8z M94.3,55.7
				c0.5-0.2,0.7-0.7,0.9-0.9c0.2-0.5,0.5-0.9,0.5-1.4c0-0.5-0.2-0.9-0.5-1.4c-0.2-0.5-0.7-0.7-0.9-0.9c-0.5-0.5-0.9-0.7-1.4-0.7
				c-0.5,0-0.9,0.2-1.4,0.5c-0.5,0.2-0.7,0.7-0.9,0.9c-0.2,0.5-0.5,0.9-0.5,1.4s0.2,0.9,0.5,1.4c0.2,0.5,0.7,0.7,0.9,0.9
				c0.5,0.2,0.9,0.5,1.4,0.5C93.4,56.1,93.9,55.9,94.3,55.7z"/>
			<path class="st0" d="M106.1,57.3V52l-2.5,4.4h-0.7l-2.5-4.4v5.3H99v-8.1h1.2l3.2,5.3l3.2-5.3h1.2v8.1H106.1z"/>
			<path class="st0" d="M117.2,57.3V52l-2.5,4.4H114l-2.5-4.4v5.3h-1.4v-8.1h1.2l3.2,5.3l3.2-5.3h1.2v8.1H117.2z"/>
			<path class="st0" d="M120.7,49.2h1.4v8.1h-1.4V49.2z"/>
			<path class="st0" d="M125.1,57.1c-0.7-0.2-0.9-0.5-1.4-0.7l0.5-1.2c0.2,0.2,0.7,0.5,1.2,0.7c0.5,0.2,0.9,0.2,1.4,0.2
				c0.7,0,1.2,0,1.4-0.2c0.2-0.2,0.5-0.5,0.5-0.7c0-0.2,0-0.5-0.2-0.5c-0.2-0.2-0.5-0.2-0.7-0.5c-0.2,0-0.7-0.2-0.9-0.2
				c-0.7-0.2-1.2-0.2-1.4-0.5c-0.5-0.2-0.7-0.5-0.9-0.7c-0.2-0.2-0.5-0.7-0.5-1.2s0.2-0.9,0.5-1.2c0.2-0.5,0.7-0.7,1.2-0.9
				s1.2-0.2,1.8-0.2c0.5,0,0.9,0,1.4,0.2c0.5,0.2,0.9,0.2,1.2,0.5l-0.5,1.2c-0.5-0.2-0.7-0.5-1.2-0.5c-0.5-0.5-0.7-0.5-1.2-0.5
				c-0.7,0-0.9,0-1.4,0.2c-0.2,0.2-0.5,0.5-0.5,0.7c0,0.2,0,0.5,0.2,0.5c0.2,0.2,0.5,0.2,0.7,0.2s0.7,0.2,0.9,0.2
				c0.7,0.2,1.2,0.2,1.4,0.5c0.5,0.2,0.7,0.5,0.9,0.7c0.2,0.2,0.5,0.7,0.5,1.2s-0.2,0.9-0.5,1.2c-0.2,0.5-0.7,0.7-1.2,0.9
				c0,0.7-0.7,0.7-1.4,0.7C126.2,57.3,125.8,57.3,125.1,57.1z"/>
			<path class="st0" d="M132.5,57.1c-0.7-0.2-0.9-0.5-1.4-0.7l0.5-1.2c0.2,0.2,0.7,0.5,1.2,0.7c0.5,0.2,0.9,0.2,1.4,0.2
				c0.7,0,1.2,0,1.4-0.2c0.2-0.2,0.5-0.5,0.5-0.7c0-0.2,0-0.5-0.2-0.5c-0.2-0.2-0.5-0.2-0.7-0.5c-0.2,0-0.7-0.2-0.9-0.2
				c-0.7-0.2-1.2-0.2-1.4-0.5c-0.5-0.2-0.7-0.5-0.9-0.7c-0.2-0.2-0.5-0.7-0.5-1.2s0.2-0.9,0.5-1.2c0.2-0.5,0.7-0.7,1.2-0.9
				c0.5-0.2,1.2-0.2,1.8-0.2c0.5,0,0.9,0,1.4,0.2c0.5,0.2,0.9,0.2,1.2,0.5l-0.5,1.2c-0.5-0.2-0.7-0.5-1.2-0.5
				c-0.5,0-0.7-0.2-1.2-0.2c-0.7,0-0.9,0-1.4,0.2c-0.2,0.2-0.5,0.5-0.5,0.7c0,0.2,0,0.5,0.2,0.5c0.2,0.2,0.5,0.2,0.7,0.2
				c0.2,0,0.7,0.2,0.9,0.2c0.7,0.2,1.2,0.2,1.4,0.5c0.5,0.2,0.7,0.5,0.9,0.7c0.2,0.2,0.5,0.7,0.5,1.2c0,0.5-0.2,0.9-0.5,1.2
				c-0.2,0.5-0.7,0.7-1.2,0.9c-0.2,0.5-0.9,0.5-1.6,0.5C133.6,57.3,132.9,57.3,132.5,57.1z"/>
			<path class="st0" d="M144,55.4h-3.9l-0.7,1.8h-1.6l3.7-8.1h1.4l3.7,8.1h-1.6L144,55.4z M143.6,54.3l-1.6-3.5l-1.6,3.5H143.6z"/>
			<path class="st0" d="M147.5,49.2h1.4v8.1h-1.4V49.2z"/>
			<path class="st0" d="M156.5,57.3l-1.6-2.3h-0.2h-1.8v2.3h-1.4v-8.1h3.2c0.7,0,1.4,0,1.8,0.2c0.5,0.2,0.9,0.5,1.2,0.9
				c0.2,0.5,0.5,0.9,0.5,1.6c0,0.7-0.2,1.2-0.5,1.6c-0.2,0.5-0.7,0.7-1.2,0.9l1.8,2.5h-1.8V57.3z M155.8,50.8
				c-0.2-0.2-0.9-0.5-1.4-0.5h-1.8v3.2h1.8c0.7,0,1.2-0.2,1.4-0.5c0.2-0.2,0.5-0.7,0.5-1.2C156.5,51.5,156.3,51.3,155.8,50.8z"/>
			<path class="st0" d="M165.5,55.9v1.4h-6v-8.1h5.8v1.2h-4.4v2.3h3.9v1.2h-3.9v2.3h4.6V55.9z"/>
			<path class="st0" d="M175.7,55.4h-3.9l-0.9,1.8h-1.6l3.7-8.1h1.4l3.7,8.1h-1.6L175.7,55.4z M175.2,54.3l-1.6-3.5l-1.6,3.5H175.2z
				"/>
			<path class="st0" d="M179.8,56.4c-0.7-0.7-0.9-1.6-0.9-2.8V49h1.4v4.4c0,1.6,0.7,2.3,2.1,2.3c1.4,0,2.1-0.7,2.1-2.3V49h1.4v4.6
				c0,1.2-0.2,2.1-0.9,2.8c-0.7,0.7-1.4,0.9-2.5,0.9C181.2,57.3,180.3,57.1,179.8,56.4z"/>
			<path class="st0" d="M193,57.3l-2.1-3l-2.3,3H187l3-4.2l-2.8-3.9h1.6l2.1,2.8l2.1-2.8h1.6l-2.8,3.9l2.8,4.2H193z"/>
			<path class="st0" d="M200.4,56.8c-0.7-0.5-1.2-0.9-1.6-1.4c-0.5-0.7-0.5-1.4-0.5-2.1c0-0.7,0.2-1.4,0.5-2.1
				c0.5-0.7,0.9-1.2,1.6-1.4c0.7-0.5,1.4-0.5,2.3-0.5c0.7,0,1.2,0,1.8,0.2c0.5,0.2,0.9,0.5,1.4,0.9l-0.9,0.9
				c-0.7-0.7-1.4-0.9-2.1-0.9c-0.5,0-1.2,0.2-1.4,0.5c-0.5,0.2-0.7,0.5-0.9,0.9c-0.2,0.5-0.5,0.9-0.5,1.4c0,0.5,0.2,0.9,0.5,1.4
				c0.2,0.5,0.7,0.7,0.9,0.9c0.5,0.2,0.9,0.5,1.4,0.5c0.9,0,1.6-0.2,2.1-0.9l0.9,0.9c-0.5,0.5-0.9,0.7-1.4,0.9
				c-0.7,0.2-1.2,0.2-1.8,0.2C201.8,57.3,201.1,57.3,200.4,56.8z"/>
			<path class="st0" d="M208.7,56.8c-0.7-0.5-1.2-0.9-1.6-1.4c-0.5-0.7-0.5-1.4-0.5-2.1c0-0.7,0.2-1.4,0.5-2.1
				c0.5-0.7,0.9-1.2,1.6-1.4c0.7-0.5,1.4-0.5,2.3-0.5c0.9,0,1.6,0.2,2.3,0.5c0.7,0.5,1.2,0.9,1.6,1.4c0.5,0.7,0.5,1.4,0.5,2.1
				c0,0.7-0.2,1.4-0.5,2.1c-0.5,0.7-0.9,1.2-1.6,1.4c-0.7,0.5-1.4,0.5-2.3,0.5C210.1,57.3,209.4,57.3,208.7,56.8z M212.4,55.7
				c0.5-0.2,0.7-0.7,0.9-0.9c0.2-0.5,0.5-0.9,0.5-1.4c0-0.5-0.2-0.9-0.5-1.4c-0.2-0.5-0.7-0.7-0.9-0.9c-0.5-0.2-0.9-0.5-1.4-0.5
				s-0.9,0.2-1.4,0.5s-0.7,0.7-0.9,0.9c-0.2,0.5-0.5,0.9-0.5,1.4c0,0.5,0.2,0.9,0.5,1.4c0.2,0.5,0.7,0.7,0.9,0.9
				c0.5,0.2,0.9,0.5,1.4,0.5C211.5,56.1,211.9,55.9,212.4,55.7z"/>
			<path class="st0" d="M224.2,57.3V52l-2.5,4.4h-0.7l-2.5-4.4v5.3H217v-8.1h1.2l3.2,5.3l3.2-5.3h1.2v8.1H224.2z"/>
			<path class="st0" d="M233,49.7c0.5,0.2,0.9,0.5,1.2,0.9c0.2,0.5,0.5,0.9,0.5,1.6c0,0.7-0.2,1.2-0.5,1.6c-0.2,0.5-0.7,0.7-1.2,0.9
				s-1.2,0.2-1.8,0.2h-1.8v2.3h-1.4v-8.1h3.2C231.8,49.2,232.5,49.4,233,49.7z M232.5,53.4c0.2-0.2,0.5-0.7,0.5-1.2
				c0-0.5-0.2-0.9-0.5-1.2c-0.2-0.2-0.9-0.5-1.4-0.5h-1.8v3.2h1.8C231.6,53.6,232.3,53.6,232.5,53.4z"/>
			<path class="st0" d="M237.3,50.6h-2.8v-1.2h6.9v1.2h-2.8v6.7h-1.4C237.3,57.3,237.3,50.6,237.3,50.6z"/>
			<path class="st0" d="M248.7,55.9v1.4h-6v-8.1h5.8v1.2H244v2.3h3.9v1.2H244v2.3h4.6V55.9z"/>
			<path class="st0" d="M107.5,70.7c-0.7-0.5-1.2-0.9-1.6-1.4c-0.5-0.7-0.5-1.4-0.5-2.1c0-0.7,0.2-1.4,0.5-2.1
				c0.5-0.7,0.9-1.2,1.6-1.4c0.7-0.5,1.4-0.5,2.3-0.5c0.7,0,1.2,0,1.8,0.2c0.5,0.2,0.9,0.5,1.4,0.9l-0.9,0.9
				c-0.7-0.7-1.4-0.9-2.1-0.9c-0.5,0-1.2,0.2-1.4,0.5c-0.5,0.2-0.7,0.5-0.9,0.9c-0.7,0.2-0.9,0.7-0.9,1.2c0,0.5,0.2,0.9,0.5,1.4
				c0.2,0.5,0.7,0.7,0.9,0.9c0.5,0.2,0.9,0.5,1.4,0.5c0.9,0,1.6-0.2,2.1-0.9l0.9,0.9c-0.5,0.5-0.9,0.7-1.4,0.9
				c-0.2,0.5-0.9,0.5-1.6,0.5S108,70.9,107.5,70.7z"/>
			<path class="st0" d="M115.6,70.7c-0.7-0.5-1.2-0.9-1.6-1.4c-0.5-0.7-0.5-1.4-0.5-2.1c0-0.7,0.2-1.4,0.5-2.1
				c0.5-0.7,0.9-1.2,1.6-1.4c0.7-0.5,1.4-0.5,2.3-0.5s1.6,0.2,2.3,0.5c0.7,0.5,1.2,0.9,1.6,1.4c0.5,0.7,0.5,1.4,0.5,2.1
				c0,0.7-0.2,1.4-0.5,2.1c-0.5,0.7-0.9,1.2-1.6,1.4c-0.7,0.5-1.4,0.5-2.3,0.5S116.3,70.9,115.6,70.7z M119.3,69.5
				c0.5-0.2,0.7-0.7,0.9-0.9c0.2-0.5,0.5-0.9,0.5-1.4s-0.2-0.9-0.5-1.4c-0.2-0.5-0.7-0.7-0.9-0.9c-0.5-0.7-0.9-0.7-1.4-0.7
				s-0.9,0.2-1.4,0.5s-0.7,0.7-0.9,0.9c-0.2,0.5-0.5,0.9-0.5,1.4c0,0.5,0.2,0.9,0.5,1.4c0.2,0.5,0.7,0.7,0.9,0.9
				c0.5,0.2,0.9,0.5,1.4,0.5C118.4,69.8,118.8,69.8,119.3,69.5z"/>
			<path class="st0" d="M131.1,71.1v-5.3l-2.5,4.4h-0.7l-2.5-4.4v5.3h-1.4v-8.1h1.2l3.2,5.3l3.2-5.3h1.2v8.1H131.1z"/>
			<path class="st0" d="M139.9,63.3c0.5,0.2,0.9,0.5,1.2,0.9c0.2,0.5,0.5,0.9,0.5,1.6c0,0.7-0.2,1.2-0.5,1.6
				c-0.2,0.5-0.7,0.7-1.2,0.9c-0.5,0.2-1.2,0.5-1.8,0.5h-1.8v2.3h-1.4v-8.1h3.2C138.7,63.1,139.4,63.1,139.9,63.3z M139.4,67
				c0.2-0.2,0.5-0.7,0.5-1.2s-0.2-0.9-0.5-1.2s-0.7-0.5-1.4-0.5h-1.8v3.2h1.8C138.7,67.4,139.2,67.2,139.4,67z"/>
			<path class="st0" d="M144.2,64.2h-2.8v-1.2h6.9v1.2h-2.8v6.9h-1.4V64.2z"/>
			<path class="st0" d="M154.4,69.3h-3.9l-0.9,1.8h-1.6l3.7-8.1h1.4l3.7,8.1h-1.4L154.4,69.3z M154,67.9l-1.6-3.5l-1.6,3.5H154z"/>
			<path class="st0" d="M164.6,67.7c0.2,0.2,0.5,0.7,0.5,1.2c0,0.7-0.2,1.2-0.7,1.6c-0.5,0.5-1.4,0.5-2.3,0.5h-3.9v-8.1h3.7
				c0.9,0,1.6,0.2,2.1,0.5c0.5,0.5,0.7,0.9,0.7,1.6c0,0.5,0,0.7-0.2,1.2c-0.2,0.2-0.5,0.5-0.7,0.7C163.9,67,164.3,67.2,164.6,67.7z
				 M159.3,64.2v2.3h2.1c0.5,0,0.9,0,1.2-0.2c0.2-0.2,0.5-0.5,0.5-0.9c0-0.5-0.2-0.7-0.5-0.9s-0.5-0.2-1.2-0.2H159.3z M163.4,68.6
				c0-0.7-0.7-1.2-1.8-1.2h-2.3v2.3h2.3C163,70,163.4,69.5,163.4,68.6z"/>
			<path class="st0" d="M166.7,63.1h1.4v6.7h4.2v1.4h-5.8v-8.1H166.7z"/>
			<path class="st0" d="M179.6,69.8v1.4h-6v-8.1h5.8v1.2H175v2.1h3.9v1.2H175v2.3H179.6z"/>
			<path class="st0" d="M189.5,69.3h-3.9l-0.9,1.8h-1.6l3.7-8.1h1.4l3.7,8.1h-1.6L189.5,69.3z M189.1,67.9l-1.6-3.5l-1.6,3.5H189.1z
				"/>
			<path class="st0" d="M198.3,67h1.4v3.2c-0.5,0.2-0.9,0.7-1.4,0.7c-0.5,0.2-1.2,0.2-1.6,0.2c-0.9,0-1.6-0.2-2.3-0.5
				c-0.7-0.5-1.2-0.9-1.6-1.4c-0.5-0.7-0.5-1.4-0.5-2.1c0-0.7,0.2-1.4,0.5-2.1c0.5-0.7,0.9-1.2,1.6-1.4c0.7-0.5,1.4-0.5,2.3-0.5
				c0.7,0,1.4,0,1.8,0.2c0.5,0.2,0.9,0.5,1.4,0.9l-0.9,0.9c-0.7-0.7-1.4-0.9-2.3-0.9c-0.5,0-1.2,0.2-1.6,0.5s-0.7,0.5-0.9,0.9
				c-0.2,0.5-0.5,0.9-0.5,1.4s0.2,0.9,0.5,1.4c0.2,0.5,0.7,0.7,0.9,0.9c0.5,0.2,0.9,0.5,1.4,0.5c0.7,0,1.2-0.2,1.6-0.5V67H198.3z"/>
			<path class="st0" d="M206.9,71.1l-1.6-2.3H205h-1.8v2.3h-1.4v-8.1h3.2c0.7,0,1.4,0,1.8,0.2c0.5,0.2,0.9,0.5,1.2,0.9
				c0.2,0.5,0.5,0.9,0.5,1.6c0,0.7-0.2,1.2-0.5,1.6c-0.2,0.5-0.7,0.7-1.2,0.9l1.6,2.8H206.9z M206.4,64.7c-0.2-0.2-0.7-0.5-1.4-0.5
				h-1.8v3.2h1.8c0.7,0,1.2-0.2,1.4-0.5c0.2-0.2,0.5-0.7,0.5-1.2C206.9,65.4,206.9,64.9,206.4,64.7z"/>
			<path class="st0" d="M216.1,69.8v1.4h-6v-8.1h5.8v1.2h-4.4v2.1h3.9v1.2h-3.9v2.3H216.1z M213.6,60.7h1.8l-2.1,1.6h-1.2
				L213.6,60.7z"/>
			<path class="st0" d="M223.7,69.8v1.4h-6v-8.1h5.8v1.2h-4.4v2.1h3.9v1.2h-3.9v2.3H223.7z"/>
		</g>
	</g>
	<g id="LOGO">
		<g>
			<g>
				<path class="st0" d="M51.9,37.3v22.1c-1.5,0.6-3.1,1.1-4.7,1.4V38.7c0-0.8,0.6-1.4,1.4-1.4C48.6,37.3,51.9,37.3,51.9,37.3z"/>
				<path class="st1" d="M57.3,43.8v12.6c-1.5,1.1-3.1,2-4.7,2.8V42.5h3.5C56.8,42.5,57.3,43,57.3,43.8z"/>
			</g>
			<g>
				<path class="st1" d="M45.7,35.8v25.2c-1.1,0.2-2.3,0.2-3.4,0.2c-0.4,0-0.9,0-1.3,0V34.5h3.3C45.1,34.5,45.7,35,45.7,35.8z"/>
				<path class="st0" d="M40.3,41.5v19.7c-1.6-0.1-3.2-0.4-4.7-0.8V42.8c0-0.7,0.6-1.2,1.2-1.2H40.3z"/>
			</g>
			<g>
				<path class="st0" d="M28.7,41.5v15.8c-1.7-1.1-3.3-2.4-4.7-3.9V42.8c0-0.6,0.5-1.2,1.2-1.2H28.7z"/>
				<path class="st1" d="M34.1,26.9v33.1c-1.7-0.6-3.2-1.3-4.7-2.2V25.3h3.1C33.4,25.3,34.1,26,34.1,26.9z"/>
			</g>
		</g>
		<path class="st0" d="M65,52.2c-4.4,11.2-15.1,19.1-27.6,19.1C21,71.3,7.7,57.5,7.7,40.7c0-5.4,1.4-10.5,3.8-14.9
			c-1.4,3.5-2.1,7.4-2.1,11.4c0,16.9,13.3,30.6,29.7,30.6C50.2,67.8,59.9,61.5,65,52.2z"/>
		<path class="st2" d="M58.5,19.4c-4.6-4.6-10.9-7.5-17.9-7.5C26.5,11.9,15,23.6,15,38.1c0,5.9,1.9,11.3,5,15.7
			c-0.3-0.3-0.6-0.6-0.9-1c-3.4-4.5-5.5-10.2-5.5-16.4c0-14.5,11.5-26.3,25.6-26.3c7.4,0,14.1,3.3,18.8,8.5l0.1,0.1
			C58.2,19,58.4,19.1,58.5,19.4z"/>
		<path class="st2" d="M65.5,50.7c-0.2,0.5-0.3,1-0.5,1.5l0,0c-5.1,9.3-14.8,15.6-25.9,15.6C22.7,67.8,9.4,54,9.4,37.2
			c0-4,0.8-7.9,2.1-11.4l0,0l0,0c0.2-0.4,0.4-0.8,0.6-1.1c-1,3.1-1.6,6.5-1.6,9.9c0,16.9,13.3,30.6,29.7,30.6
			C50.9,65.2,60.3,59.3,65.5,50.7z"/>
		<path class="st0" d="M58,18.6c-4.7-5.2-11.4-8.5-18.8-8.5c-14.1,0-25.6,11.8-25.6,26.3c0,6.2,2.1,11.9,5.5,16.3
			C14.9,48,12.4,41.8,12.4,35c0-8.1,3.6-15.4,9.2-20.2c4.5-3.7,10.2-6,16.4-6C46.1,8.8,53.3,12.6,58,18.6z"/>
	</g>
</g>
</svg>
