<?xml version="1.0" encoding="utf-8"?>
<!-- Generator: Adobe Illustrator 24.0.1, SVG Export Plug-In . SVG Version: 6.00 Build 0)  -->
<svg version="1.1" id="Calque_1" xmlns="http://www.w3.org/2000/svg" xmlns:xlink="http://www.w3.org/1999/xlink" x="0px" y="0px"
	 viewBox="0 0 16 16" style="enable-background:new 0 0 16 16;" xml:space="preserve">
<style type="text/css">
	.st0{fill:#009999;}
	.st1{fill:#FFFFFF;}
	.st2{fill:#A6A6A6;}
</style>
<g>
	<rect x="1.7" y="1.7" class="st0" width="12.5" height="12.5"/>
	<g>
		<g>
			<g>
				<path class="st1" d="M10.6,7.5v3.8c-0.3,0.1-0.5,0.2-0.8,0.2V7.8c0-0.1,0.1-0.2,0.2-0.2L10.6,7.5L10.6,7.5z"/>
				<path class="st1" d="M11.6,8.6v2.2c-0.2,0.2-0.5,0.4-0.8,0.5V8.4h0.6C11.5,8.4,11.6,8.5,11.6,8.6z"/>
			</g>
			<g>
				<path class="st1" d="M9.6,7.3v4.4c-0.2,0-0.4,0-0.6,0c-0.1,0-0.2,0-0.2,0V7h0.6C9.5,7,9.6,7.2,9.6,7.3z"/>
				<path class="st1" d="M8.6,8.3v3.4c-0.3,0-0.6-0.1-0.8-0.2v-3c0-0.1,0.1-0.2,0.2-0.2H8.6z"/>
			</g>
			<g>
				<path class="st1" d="M6.6,9.3V11c-0.3-0.2-0.6-0.4-0.8-0.7V9.5c0-0.1,0.1-0.2,0.2-0.2H6.6z"/>
				<path class="st1" d="M7.6,5.7v5.7c-0.3-0.1-0.6-0.2-0.8-0.4V5.4h0.5C7.4,5.4,7.6,5.6,7.6,5.7z"/>
			</g>
		</g>
		<path class="st1" d="M12.9,10.1c-0.8,1.9-2.6,3.3-4.8,3.3C5.3,13.4,3,11,3,8.1c0-0.9,0.2-1.8,0.6-2.6c-0.2,0.6-0.4,1.3-0.4,2
			c0,2.9,2.3,5.3,5.1,5.3C10.3,12.8,12,11.7,12.9,10.1z"/>
		<path class="st2" d="M11.8,4.4C11,3.6,9.9,3.1,8.7,3.1c-2.4,0-4.4,2-4.4,4.6c0,1,0.3,1.9,0.9,2.7c0,0-0.1-0.1-0.2-0.2
			C4.4,9.4,4,8.4,4,7.4c0-2.5,2-4.5,4.4-4.5c1.3,0,2.5,0.6,3.3,1.5C11.7,4.3,11.7,4.3,11.8,4.4C11.7,4.4,11.8,4.4,11.8,4.4z"/>
		<path class="st2" d="M13,9.8c0,0.1-0.1,0.2-0.1,0.2l0,0c-0.9,1.6-2.6,2.7-4.5,2.7c-2.8,0-5.1-2.4-5.1-5.3c0-0.7,0.1-1.4,0.4-2l0,0
			l0,0c0-0.1,0.1-0.1,0.1-0.2C3.6,5.9,3.5,6.5,3.5,7.1c0,2.9,2.3,5.3,5.1,5.3C10.5,12.3,12.1,11.3,13,9.8z"/>
		<path class="st1" d="M11.7,4.3c-0.8-0.9-2-1.5-3.3-1.5C6,2.8,4,4.9,4,7.4c0,1.1,0.4,2.1,1,2.8C4.3,9.4,3.8,8.3,3.8,7.1
			c0-1.4,0.6-2.7,1.6-3.5c0.8-0.6,1.7-1,2.8-1C9.6,2.6,10.9,3.3,11.7,4.3z"/>
	</g>
</g>
</svg>
