<?xml version="1.0" encoding="utf-8"?>
<!-- Generator: Adobe Illustrator 24.0.1, SVG Export Plug-In . SVG Version: 6.00 Build 0)  -->
<svg version="1.1" id="Calque_1" xmlns="http://www.w3.org/2000/svg" xmlns:xlink="http://www.w3.org/1999/xlink" x="0px" y="0px"
	 viewBox="0 0 100 100" enable-background="new 0 0 100 100" xml:space="preserve">
<g>
	<g>
		<g>
			<path fill="#009999" d="M47,39.4c-1.1,1.1-1.1,3,0,4.2l-0.3-0.3L21.6,68.4c-0.7,0.7-0.7,2,0,2.7l1.2,1.2c0.7,0.7,2,0.7,2.7,0
				l25.1-25.1l0.3,0.3c1.1,1.1,3,1.1,4.2,0l2.3-2.3l-8.1-8.1L47,39.4z"/>
			<path fill="#009999" d="M75.5,43.1l-0.2-0.2c-0.7-0.7-1.6-1.1-2.5-1.2L69,41.5l-0.1,0.1c0.9-1,0.9-2.5-0.1-3.5L56.3,25.6
				c-0.9-0.9-2.4-1-3.4-0.2V22c0-1.1-0.4-2.1-1.2-2.8l-0.4-0.4c-0.8-0.8-2.1-0.8-2.8,0L41,26.3c-0.8,0.8-0.8,2.1,0,2.8l0.2,0.2
				c0.7,0.7,1.6,1.1,2.5,1.2l3.8,0.3c0,0-0.3,2.1,0.7,3.1l1.9,1.8l0.3,0.3l8.2,8l0.9,0.9l1.1,1.1c0.9,0.9,2.4,1,3.4,0.2l-0.4,0.3
				v3.7c0,1.1,0.4,2.1,1.2,2.8l0.4,0.4c0.8,0.8,2.1,0.8,2.8,0l7.5-7.5C76.2,45.2,76.2,43.9,75.5,43.1z"/>
		</g>
		<g>
			<path fill="#009999" d="M77,77.9H50.6c-1.1,0-1.9,0.9-1.9,1.9c0,1.1,0.9,1.9,1.9,1.9H77c1.1,0,1.9-0.9,1.9-1.9
				C78.9,78.8,78.1,77.9,77,77.9z"/>
			<path fill="#009999" d="M73.6,75.8L73.6,75.8l-20.4,0.1v-0.1c0-0.6,3-1.8,5.7-2.6c2.9-0.9,5.8-0.9,8.7,0c1.4,0.4,2.9,0.9,4,1.4
				S73.6,75.5,73.6,75.8z"/>
		</g>
	</g>
</g>
</svg>
