<?xml version="1.0" encoding="utf-8"?>
<!-- Generator: Adobe Illustrator 24.0.1, SVG Export Plug-In . SVG Version: 6.00 Build 0)  -->
<svg version="1.1" id="Calque_1" xmlns="http://www.w3.org/2000/svg" xmlns:xlink="http://www.w3.org/1999/xlink" x="0px" y="0px"
	 viewBox="0 0 100 100" enable-background="new 0 0 100 100" xml:space="preserve">
<g>
	<g>
		<path fill="#009999" d="M77.3,70.8H22.7c-1.3,0-2.3,1.1-2.3,2.3s1.1,2.3,2.3,2.3h54.6c1.3,0,2.3-1.1,2.3-2.3S78.6,70.8,77.3,70.8z
			"/>
		<path fill="#009999" d="M76.2,47.5H23.6v2.7H26c0,0,0,0,0,0.1c0,0.9,0.4,1.8,1.1,2.4C27,52.9,27,53.2,27,53.5v13.5
			c0,0.5,0.2,1,0.5,1.4h-1.8c-0.7,0-1.4,0.4-1.8,0.9h51.8c-0.4-0.6-1.1-0.9-1.8-0.9h-1.9c0.3-0.4,0.5-0.9,0.5-1.4V53.5
			c0-0.3-0.1-0.6-0.2-0.8c0.7-0.6,1.1-1.4,1.1-2.4c0,0,0,0,0-0.1h2.8V47.5z M31.2,68.4c0.3-0.4,0.5-0.9,0.5-1.4V53.5
			c0-0.3-0.1-0.6-0.2-0.8c0.7-0.6,1.1-1.4,1.1-2.4v-0.1h3.8c0,0,0,0,0,0.1c0,0.9,0.4,1.7,1,2.2c-0.1,0.3-0.2,0.6-0.2,1v13.5
			c0,0.5,0.2,1,0.5,1.4H31.2z M41.4,68.4c0.3-0.4,0.5-0.9,0.5-1.4V53.5c0-0.2,0-0.5-0.1-0.7c0.8-0.6,1.3-1.5,1.3-2.5v-0.1h3.8
			c0,0,0,0,0,0.1c0,0.9,0.4,1.8,1.1,2.4c-0.1,0.3-0.2,0.5-0.2,0.8v13.5c0,0.5,0.2,1,0.5,1.4H41.4z M52,68.4c0.3-0.4,0.5-0.9,0.5-1.4
			V53.5c0-0.3-0.1-0.6-0.2-0.8c0.7-0.6,1.1-1.4,1.1-2.4v-0.1h3.8c0,0,0,0,0,0.1c0,0.9,0.4,1.8,1.1,2.4c-0.1,0.3-0.2,0.5-0.2,0.8
			v13.5c0,0.5,0.2,1,0.5,1.4H52z M62.3,68.4c0.3-0.4,0.5-0.9,0.5-1.4V53.5c0-0.3-0.1-0.6-0.2-0.8c0.7-0.6,1.1-1.4,1.1-2.4
			c0,0,0,0,0-0.1h3c0,0,0,0,0,0.1c0,0.9,0.4,1.8,1.1,2.4c-0.1,0.3-0.2,0.5-0.2,0.8v13.5c0,0.5,0.2,1,0.5,1.4H62.3z"/>
		<path fill="#009999" d="M76.2,38.9L52.3,25.1c-1.5-0.9-3.3-0.9-4.8,0L24,38.9c-2.1,1.2-3.4,3.5-3.4,5.9v0.7h59.1v-0.7
			C79.6,42.4,78.3,40.1,76.2,38.9z M69.8,39.6c-0.1,0.3-0.4,0.4-0.7,0.4c-0.1,0-0.3,0-0.4-0.1l-15.3-8.6c-0.4-0.2-0.5-0.7-0.3-1.1
			c0.2-0.4,0.7-0.5,1.1-0.3l15.3,8.6C69.8,38.7,70,39.2,69.8,39.6z"/>
	</g>
</g>
</svg>
