<?xml version="1.0" encoding="utf-8"?>
<!-- Generator: Adobe Illustrator 24.0.1, SVG Export Plug-In . SVG Version: 6.00 Build 0)  -->
<svg version="1.1" id="Calque_1" xmlns="http://www.w3.org/2000/svg" xmlns:xlink="http://www.w3.org/1999/xlink" x="0px" y="0px"
	 viewBox="0 0 100 100" enable-background="new 0 0 100 100" xml:space="preserve">
<g>
	<path fill="#009999" d="M41.3,26.8c-10.8,3.1-18.7,13-18.7,24.8c0,14.2,11.5,25.8,25.8,25.8c12.4,0,22.8-8.8,25.2-20.5l-26.3-4.2
		L41.3,26.8z"/>
	<path fill="#009999" d="M58.6,24.3c-3-1.1-6.2-1.7-9.6-1.7c-1.7,0-3.4,0.2-5.1,0.4l5.4,23.4L58.6,24.3z"/>
	<path fill="#009999" d="M61.1,25.4L50.9,50l26.3,4.2c0.1-1,0.2-2,0.2-3.1C77.4,39.7,70.8,29.9,61.1,25.4z"/>
</g>
</svg>
