<?xml version="1.0" encoding="utf-8"?>
<!-- Generator: Adobe Illustrator 24.0.1, SVG Export Plug-In . SVG Version: 6.00 Build 0)  -->
<svg version="1.1" id="Calque_1" xmlns="http://www.w3.org/2000/svg" xmlns:xlink="http://www.w3.org/1999/xlink" x="0px" y="0px"
	 viewBox="0 0 50 50" enable-background="new 0 0 50 50" xml:space="preserve">
<g>
	<g>
		<g>
			<path fill="#FFFFFF" d="M34.1,18c0-2.9-2.3-5.2-5.2-5.2s-5.2,2.3-5.2,5.2c0,2.2,3.1,6,4.5,7.7c0.4,0.4,1.1,0.4,1.4,0
				C31,24.1,34.1,20.3,34.1,18z M26,18c0-1.6,1.3-2.9,2.9-2.9c1.6,0,2.9,1.3,2.9,2.9c0,1.6-1.3,2.9-2.9,2.9C27.3,20.9,26,19.6,26,18
				z"/>
			<path fill="#FFFFFF" d="M13.7,20.9V34c0,0.6,0.4,1.2,1,1.4l5.9,1.7V20.8l-5.1-1.4C14.6,19.2,13.7,19.9,13.7,20.9z"/>
			<path fill="#FFFFFF" d="M23.4,20.3l-1,0.3c-0.5,0.1-0.9,0.6-0.9,1.1v15.5l5.9-1.7c0.6-0.2,1-0.8,1-1.4v-7.2
				c-0.4-0.1-0.7-0.3-0.9-0.6C26,24.5,24.3,22.3,23.4,20.3z"/>
			<path fill="#FFFFFF" d="M34.9,20.5l-0.6-0.2c-0.9,2-2.6,4.2-4.1,6c-0.2,0.3-0.6,0.5-0.9,0.6V34c0,0.6,0.4,1.2,1,1.4l4.3,1.3
				c0.8,0.2,1.6-0.4,1.6-1.2V22.2C36.3,21.4,35.7,20.7,34.9,20.5z"/>
		</g>
	</g>
</g>
</svg>
