<?xml version="1.0" encoding="utf-8"?>
<!-- Generator: Adobe Illustrator 24.0.1, SVG Export Plug-In . SVG Version: 6.00 Build 0)  -->
<svg version="1.1" id="Calque_1" xmlns="http://www.w3.org/2000/svg" xmlns:xlink="http://www.w3.org/1999/xlink" x="0px" y="0px"
	 viewBox="0 0 100 100" enable-background="new 0 0 100 100" xml:space="preserve">
<g>
	<g>
		<polygon fill="#009999" points="24,72.4 24,25 21.5,25 21.5,75 78.5,75 78.5,72.4 		"/>
		<path fill="#009999" d="M27.9,70c0.6,0,1.2-0.2,1.6-0.7l12.8-14.4l5.9,8.8c0.4,0.6,1,0.9,1.7,1c0.7,0,1.4-0.3,1.8-0.8l20.9-27
			l2.2,1.7l1.5-10.7l-9,5l1.9,1.4L50.2,58.9l-5.8-8.7c-0.4-0.6-1-0.9-1.6-1c-0.7,0-1.3,0.2-1.8,0.7L26.3,66.5
			c-0.8,0.9-0.7,2.2,0.2,3C26.9,69.9,27.4,70,27.9,70z"/>
	</g>
</g>
</svg>
