<?xml version="1.0" encoding="utf-8"?>
<!-- Generator: Adobe Illustrator 24.0.1, SVG Export Plug-In . SVG Version: 6.00 Build 0)  -->
<svg version="1.1" id="Calque_1" xmlns="http://www.w3.org/2000/svg" xmlns:xlink="http://www.w3.org/1999/xlink" x="0px" y="0px"
	 viewBox="0 0 100 100" enable-background="new 0 0 100 100" xml:space="preserve">
<g>
	<path fill="#009999" d="M54.2,64.8C50,64,48.3,63,47.7,62.3l-2.7,3.6l-1.7-1.7c-0.5-0.7-1.2-0.7-1.2-0.7l5.1-3v0
		c-0.1-1.9,0.4-4.4,0.4-4.4c2.9-2.7,2.7-11.7,2.7-12.6s-2.2-5.1-4.6-6.1c-2.4-1-9.7,0.2-9.7,1.5c0,1.2-1.7,3.2-1.7,3.2
		s0.7,0.2-0.2,1.9c-1,1.7-0.2,2.7-0.2,2.7s0,2.7,0,3.9c0,1.2,1.2,3.4,1.2,3.4c0.2,1.7,1.7,2.7,1.7,2.7v3.8l5.2,3.1
		c0,0-0.7,0-1.2,0.7l-1.7,1.7l-3-3.9c-2.5,2.5-8.3,3.3-8.3,3.3c-9,1-6.6,14.8-6.6,14.8h42c0.4-2.8,0.3-5.1-0.1-7
		C62.1,68.8,58.5,65.5,54.2,64.8z M40.6,72.5c-0.5-1-1.7-5.3-1.7-5.3v-0.9l1.2-1.2c0.3,1.2,1.2,2.3,1.2,2.3L40.6,72.5z M44.9,67.1
		c0,0-1.2,4.4-1.7,5.3l-0.7-5.1c0,0,1-1.1,1.2-2.3l1.2,1.2V67.1z"/>
	<path fill="#009999" d="M79.3,25.7v15.8c0,3.1-2.5,5.7-5.6,5.8l-9.3,0.3l-9.6,6c-0.2,0.1-0.4,0.2-0.6,0.2c-0.3,0-0.5-0.1-0.7-0.2
		c-0.4-0.3-0.6-0.8-0.5-1.3l1-4.2h-1.4c0.1-0.8,0.1-1.6,0.1-2.4h2.9c0.4,0,0.7,0.2,1,0.5c0.2,0.3,0.3,0.7,0.2,1L56,49.9l7.3-4.6
		c0.2-0.1,0.4-0.2,0.6-0.2l9.7-0.3c1.8-0.1,3.3-1.5,3.3-3.4V25.7c0-1.9-1.5-3.4-3.4-3.4H47.7c-1.9,0-3.4,1.5-3.4,3.4v8.9
		c-0.4,0-0.9-0.1-1.4-0.1c-0.2,0-0.6,0-1,0v-8.9c0-3.2,2.6-5.8,5.8-5.8h25.8C76.7,19.9,79.3,22.5,79.3,25.7z"/>
	<g>
		<path fill="#009999" d="M51.2,28.8H70c0.6,0,1-0.4,1-1s-0.4-1-1-1H51.2c-0.6,0-1,0.4-1,1S50.6,28.8,51.2,28.8z"/>
		<path fill="#009999" d="M51.2,34.1H70c0.6,0,1-0.4,1-1s-0.4-1-1-1H51.2c-0.6,0-1,0.4-1,1S50.6,34.1,51.2,34.1z"/>
		<path fill="#009999" d="M54.4,37.4c-0.6,0-1,0.4-1,1s0.4,1,1,1h12.4c0.6,0,1-0.4,1-1s-0.4-1-1-1H54.4z"/>
	</g>
</g>
</svg>
