<?xml version="1.0" encoding="utf-8"?>
<!-- Generator: Adobe Illustrator 24.0.1, SVG Export Plug-In . SVG Version: 6.00 Build 0)  -->
<svg version="1.1" id="Calque_1" xmlns="http://www.w3.org/2000/svg" xmlns:xlink="http://www.w3.org/1999/xlink" x="0px" y="0px"
	 viewBox="0 0 50 50" enable-background="new 0 0 50 50" xml:space="preserve">
<g>
	<g>
		<path fill="#FFFFFF" d="M25,48C12.3,48,2,37.7,2,25S12.3,2,25,2s23,10.3,23,23S37.7,48,25,48z M25,2.9C12.8,2.9,2.9,12.8,2.9,25
			S12.8,47.1,25,47.1S47.1,37.2,47.1,25S37.2,2.9,25,2.9z"/>
	</g>
	<g>
		<g>
			<polygon fill="#FFFFFF" points="25.2,28.7 12.5,16 13.2,15.3 25.2,27.4 36.8,15.8 37.5,16.4 			"/>
		</g>
		<g>
			<polygon fill="#FFFFFF" points="25.2,39.5 12.5,26.8 13.2,26.1 25.2,38.2 36.8,26.6 37.5,27.2 			"/>
		</g>
	</g>
</g>
</svg>
