<?xml version="1.0" encoding="utf-8"?>
<!-- Generator: Adobe Illustrator 24.0.1, SVG Export Plug-In . SVG Version: 6.00 Build 0)  -->
<svg version="1.1" id="Calque_1" xmlns="http://www.w3.org/2000/svg" xmlns:xlink="http://www.w3.org/1999/xlink" x="0px" y="0px"
	 viewBox="0 0 50 50" enable-background="new 0 0 50 50" xml:space="preserve">
<g>
	<g>
		<path fill="#FFFFFF" d="M26.5,17.7H17c-1,0-1.8,0.8-1.8,1.8v17.7c0,1,0.8,1.8,1.8,1.8h9.5c1,0,1.8-0.8,1.8-1.8V19.5
			C28.3,18.5,27.5,17.7,26.5,17.7z M21.7,38.3c-0.5,0-1-0.4-1-1c0-0.5,0.4-1,1-1s1,0.4,1,1C22.7,37.9,22.3,38.3,21.7,38.3z
			 M27.1,34.1c0,0.8-0.6,1.4-1.4,1.4h-7.9c-0.8,0-1.4-0.6-1.4-1.4V20.3c0-0.8,0.6-1.4,1.4-1.4h7.9c0.8,0,1.4,0.6,1.4,1.4V34.1z"/>
		<path fill="#FFFFFF" d="M31.9,13.6c-2.4-2.3-5.2-2.5-6.3-2.5c0,0,0,0,0,0c-0.3,0-0.5,0.2-0.5,0.5c0,0.3,0.2,0.5,0.5,0.5
			c0,0,0,0,0,0c1,0,3.5,0.2,5.7,2.3c2.4,2.3,2.6,5.2,2.6,6c0,0.3,0.2,0.5,0.5,0.5c0,0,0,0,0,0c0.3,0,0.5-0.2,0.5-0.5
			C34.8,19.4,34.6,16.1,31.9,13.6z"/>
		<path fill="#FFFFFF" d="M30,15.7c-1.6-1.6-3.6-1.7-4.4-1.7c0,0,0,0,0,0c-0.3,0-0.5,0.2-0.5,0.5c0,0.3,0.2,0.5,0.5,0.5c0,0,0,0,0,0
			c0.7,0,2.3,0.1,3.7,1.5c1.6,1.5,1.7,3.4,1.7,3.9c0,0.3,0.2,0.5,0.5,0.5c0,0,0,0,0,0c0.3,0,0.5-0.2,0.5-0.5
			C31.9,19.7,31.8,17.4,30,15.7z"/>
	</g>
</g>
</svg>
