<?xml version="1.0" encoding="utf-8"?>
<!-- Generator: Adobe Illustrator 24.0.1, SVG Export Plug-In . SVG Version: 6.00 Build 0)  -->
<svg version="1.1" id="Calque_1" xmlns="http://www.w3.org/2000/svg" xmlns:xlink="http://www.w3.org/1999/xlink" x="0px" y="0px"
	 viewBox="0 0 100 100" enable-background="new 0 0 100 100" xml:space="preserve">
<g>
	<g>
		<path fill="#009999" d="M43.5,54.3c0-2.1-1.1-3.1-3.2-3.1c-2.1,0-4.1,0-6.2,0c-3.1,0-6.2,0-9.3,0c-1.4,0-2.4,0.6-2.7,1.8
			c-0.1,0.5-0.2,1-0.2,1.5c0,3.4,0,6.8,0,10.2c0,3.4,0,6.9,0,10.3c0,2.2,1,3.2,3.2,3.2c5.1,0,10.2,0,15.3,0c2.1,0,3.1-1,3.1-3.1
			C43.5,68.1,43.5,61.2,43.5,54.3z M30.9,74.2c-0.4,0-0.8,0-1.3,0c0,0.4,0,0.8,0,1.2c0,0.7-0.5,1.1-1.1,1.1c-0.7,0-1.1-0.4-1.1-1.1
			c0-0.4,0-0.7,0-1.2c-0.5,0-0.9,0-1.3,0c-0.6,0-1-0.5-1-1.1c0-0.6,0.4-1,1-1.1c0.4,0,1,0.1,1.2-0.1c0.2-0.2,0.1-0.8,0.2-1.2
			c0.1-0.6,0.5-0.9,1.1-0.9c0.6,0,1,0.4,1.1,0.9c0,0.4,0,0.9,0,1.4c0.5,0,0.9,0,1.3,0c0.7,0,1.1,0.4,1.1,1.1
			C32,73.8,31.6,74.2,30.9,74.2z M30.9,65.2c0.5,0.5,0.5,1.1,0.1,1.6c-0.5,0.5-1.1,0.5-1.6-0.1c-0.3-0.3-0.5-0.6-0.8-0.9
			c-0.3,0.4-0.6,0.7-0.9,1c-0.5,0.4-1.1,0.4-1.5-0.1c-0.5-0.5-0.5-1.1,0-1.6c0.3-0.3,0.5-0.5,0.9-0.9c-0.3-0.2-0.6-0.5-0.8-0.7
			c-0.6-0.6-0.6-1.2-0.1-1.6c0.5-0.5,1.1-0.5,1.6,0.1c0.3,0.3,0.5,0.6,0.8,1c0.3-0.4,0.6-0.7,0.9-1c0.5-0.4,1.1-0.4,1.5,0.1
			c0.5,0.5,0.5,1,0,1.5c-0.3,0.3-0.6,0.5-0.9,0.8C30.3,64.7,30.6,65,30.9,65.2z M34.3,63c0-0.7,0.4-1.1,1.1-1.1c0.6,0,1.2,0,1.9,0
			c0.6,0,1.2,0,1.9,0c0.7,0,1.1,0.5,1.1,1.1c0,0.7-0.4,1.1-1.1,1.1c-1.2,0-2.5,0-3.7,0C34.7,64,34.3,63.6,34.3,63z M35.4,65
			c1.2,0,2.4,0,3.6,0c0.8,0,1.2,0.4,1.2,1.1c0,0.6-0.5,1.1-1.2,1.1c-0.6,0-1.2,0-1.8,0c0,0,0,0,0,0c-0.6,0-1.2,0-1.8,0
			c-0.7,0-1.2-0.4-1.2-1.1C34.3,65.4,34.7,65,35.4,65z M39.4,74.2c-0.5,0-0.9,0-1.4,0c-0.2,0-0.4,0-0.6,0c-0.3,0-0.7,0-1.1,0h0
			c-0.2,0-0.3,0-0.5,0c-0.1,0-0.2,0-0.4,0c-0.7,0-1.1-0.4-1.1-1.1c0-0.7,0.4-1.1,1.1-1.1c1.3,0,2.6,0,4,0c0.7,0,1.1,0.4,1.1,1.1
			C40.5,73.8,40.1,74.2,39.4,74.2z M41.2,55.3c-0.1,1-0.2,2-0.2,2.9c0,0.4-0.1,0.5-0.5,0.5c-5.2,0-10.4,0-15.6,0
			c-0.2,0-0.5-0.2-0.5-0.3c-0.1-1.5-0.2-3.1-0.4-4.7h17.2C41.3,54.3,41.3,54.8,41.2,55.3z"/>
		<path fill="#009999" d="M69.8,34.5c-1-0.1-2-0.1-3-0.2v-0.6c0-1.9,0-3.8,0-5.7c0-1.8-1.2-3.1-3.1-3.1c-10.9,0-21.8,0-32.7,0
			c-1.9,0-3.1,1.2-3.1,3.1c0,6.6,0,13.2,0,19.8v0.7h-3v-0.6c0-6.6,0-13.3,0-19.9c0-3.6,2.5-6.1,6.1-6.1c5.8,0,11.6,0,17.4,0h15
			c3.8,0,6.3,2.5,6.3,6.3C69.8,30.3,69.8,32.3,69.8,34.5z"/>
		<path fill="#009999" d="M67.3,37.9c-5.8,0-10.6,4.8-10.6,10.8c0,5.8,4.8,10.6,10.6,10.6c6,0,10.8-4.8,10.7-10.7
			C78.1,42.6,73.3,37.9,67.3,37.9z M67.4,57.7c-5,0-9.1-4.1-9.1-9.2c0-4.9,4.2-9,9.1-9c5,0,9.1,4.1,9.1,9.1
			C76.5,53.6,72.4,57.7,67.4,57.7z"/>
		<path fill="#009999" d="M69.8,69.6c-0.1,3-2.6,5.6-5.6,5.7c-5.9,0.1-11.7,0-17.6,0c0,0,0,0-0.1,0v-3h0.7c5.5,0,10.9,0,16.4,0
			c2.1,0,3.3-1.2,3.3-3.3v-6.1c1-0.1,2-0.1,3-0.2c0,0.1,0,0.2,0,0.3C69.8,65.2,69.8,67.4,69.8,69.6z"/>
		<path fill="#009999" d="M60.8,33.9c0,0.6-0.4,1-1,1c-1.2,0-2.4,0-3.6,0h-21c-0.2,0-0.3,0-0.5,0c-0.5-0.1-0.9-0.5-0.9-1
			c0-0.5,0.4-0.9,0.9-1c0.1,0,0.3,0,0.5,0c8.1,0,16.2,0,24.4,0c0.1,0,0.2,0,0.2,0C60.4,32.9,60.8,33.3,60.8,33.9z"/>
		<path fill="#009999" d="M56.9,40.9c-0.4,0.6-0.7,1.2-1.1,1.8c-0.1,0.1-0.4,0.2-0.6,0.2c-2.3,0-4.6,0-6.9,0c-4.4,0-8.7,0-13.1,0
			c-0.2,0-0.5,0-0.7-0.1c-0.5-0.2-0.7-0.6-0.6-1.1c0.1-0.5,0.4-0.8,0.8-0.9c0.1,0,0.2,0,0.3,0h21.5C56.7,40.9,56.7,40.9,56.9,40.9z"
			/>
		<path fill="#009999" d="M38,74.2h-0.6c-0.5,0-1.1,0-1.6,0c0.5,0,1.1,0,1.6,0C37.6,74.2,37.8,74.2,38,74.2z"/>
		<path fill="#009999" d="M71,51.6c-0.1,1.2-0.9,2.1-2.1,2.3c-0.7,0.1-0.9,0.5-0.8,1.1c0,0.1,0,0.3,0,0.5h-1c0-0.1-0.1-0.1-0.1-0.1
			c0.2-1-0.3-1.4-1.2-1.6c-1.5-0.5-2.1-1.5-1.9-2.9h1.9c0,0.1,0.1,0.2,0.1,0.3c0.3,1.1,0.9,1.5,1.9,1.3c0.7-0.1,1-0.4,1.2-1
			c0.1-0.6-0.1-1.2-0.6-1.5c-0.6-0.3-1.3-0.6-1.9-0.9c-0.4-0.2-0.8-0.4-1.1-0.6c-0.9-0.6-1.3-1.5-1.2-2.6c0.1-1.1,0.6-1.9,1.6-2.3
			c1-0.3,1.7-0.6,1.3-1.9h1.1c0,0.1,0.1,0.1,0.1,0.2c-0.2,0.9,0.2,1.4,1.1,1.7c1.2,0.4,1.8,1.7,1.6,2.9c-0.6,0-1.2,0-1.7,0
			c-0.1,0-0.3-0.3-0.3-0.4c-0.2-0.8-0.5-1.1-1.2-1.2c-0.7-0.1-1.2,0.2-1.4,0.8c-0.2,0.7,0,1.3,0.6,1.7c0.8,0.5,1.7,0.8,2.6,1.3
			C70.7,49.2,71.2,50.2,71,51.6z"/>
	</g>
</g>
</svg>
