<?xml version="1.0" encoding="utf-8"?>
<!-- Generator: Adobe Illustrator 24.0.1, SVG Export Plug-In . SVG Version: 6.00 Build 0)  -->
<svg version="1.1" id="Calque_1" xmlns="http://www.w3.org/2000/svg" xmlns:xlink="http://www.w3.org/1999/xlink" x="0px" y="0px"
	 viewBox="0 0 50 50" enable-background="new 0 0 50 50" xml:space="preserve">
<g>
	<g>
		<path fill="#FFFFFF" d="M34.8,18.1c-3.3,2.8-6.5,5.6-9.8,8.4c-3.3-2.8-6.5-5.6-9.8-8.4c0.3-0.3,0.6-0.4,1-0.4c4.5,0,8.9,0,13.4,0
			c1.4,0,2.8,0,4.2,0C34.2,17.7,34.5,17.8,34.8,18.1z"/>
		<path fill="#FFFFFF" d="M34.8,31.9c-0.3,0.3-0.6,0.4-1,0.4c-5.9,0-11.7,0-17.6,0c-0.4,0-0.7-0.1-1-0.4c2.4-2.1,4.8-4.1,7.3-6.2
			c0.8,0.7,1.7,1.5,2.5,2.2c0.8-0.7,1.7-1.5,2.5-2.2C30,27.8,32.4,29.8,34.8,31.9z"/>
		<path fill="#FFFFFF" d="M35.2,19v12.1c-2.4-2-4.7-4-7.1-6C30.5,23.1,32.9,21,35.2,19z"/>
		<path fill="#FFFFFF" d="M21.8,25.1c-2.4,2-4.7,4-7.1,6V19C17.1,21,19.5,23.1,21.8,25.1z"/>
	</g>
</g>
</svg>
