<?xml version="1.0" encoding="utf-8"?>
<!-- Generator: Adobe Illustrator 24.0.1, SVG Export Plug-In . SVG Version: 6.00 Build 0)  -->
<svg version="1.1" id="Calque_1" xmlns="http://www.w3.org/2000/svg" xmlns:xlink="http://www.w3.org/1999/xlink" x="0px" y="0px"
	 viewBox="0 0 100 100" style="enable-background:new 0 0 100 100;" xml:space="preserve">
<style type="text/css">
	.st0{fill:#FFFFFF;}
	.st1{fill:#009999;}
	.st2{fill:#A6A6A6;}
</style>
<g>
	<g>
		<g>
			<path class="st0" d="M65.3,31.5v22.1c-1.5,0.6-3.1,1.1-4.7,1.4V32.9c0-0.8,0.6-1.4,1.4-1.4C62,31.5,65.3,31.5,65.3,31.5z"/>
			<path class="st1" d="M70.7,38v12.6c-1.5,1.1-3.1,2-4.7,2.8V36.7h3.5C70.2,36.7,70.7,37.3,70.7,38z"/>
		</g>
		<g>
			<path class="st1" d="M59.1,30.1v25.2c-1.1,0.2-2.3,0.2-3.4,0.2c-0.4,0-0.9,0-1.3,0V28.7h3.3C58.5,28.7,59.1,29.3,59.1,30.1z"/>
			<path class="st0" d="M53.7,35.8v19.7c-1.6-0.1-3.2-0.4-4.7-0.8V37c0-0.7,0.6-1.2,1.2-1.2H53.7z"/>
		</g>
		<g>
			<path class="st0" d="M42.1,41.3v10.3c-1.7-1.1-3.3-2.4-4.7-3.9v-5.2c0-0.6,0.5-1.2,1.2-1.2H42.1z"/>
			<path class="st1" d="M47.5,21.1v33.1c-1.7-0.6-3.2-1.3-4.7-2.2V19.5h3.1C46.8,19.5,47.5,20.2,47.5,21.1z"/>
		</g>
	</g>
	<g>
		<path class="st0" d="M16.5,70.3h3.1l6.9,8.5v-6.5c0-0.7-0.1-1.1-0.2-1.3c-0.2-0.2-0.5-0.3-1-0.3h-0.4v-0.3h3.9v0.3h-0.4
			c-0.5,0-0.8,0.1-1,0.4c-0.1,0.2-0.2,0.6-0.2,1.2v9.5h-0.3l-7.4-9.1v7c0,0.7,0.1,1.1,0.2,1.3c0.2,0.2,0.5,0.3,1,0.3h0.4v0.3h-3.9
			v-0.3h0.4c0.5,0,0.8-0.1,1-0.4c0.1-0.2,0.2-0.6,0.2-1.2v-7.9c-0.2-0.2-0.3-0.3-0.4-0.5c-0.1-0.1-0.2-0.2-0.3-0.3
			c-0.1-0.1-0.2-0.1-0.3-0.2c-0.1,0-0.3-0.1-0.4-0.2c-0.2,0-0.4-0.1-0.7-0.1v-0.2H16.5z"/>
		<path class="st0" d="M31.2,80c0.1,0,0.2,0,0.4,0.1c0.1,0,0.2,0.1,0.3,0.2c0.1,0.1,0.1,0.2,0.2,0.3c0,0.1,0.1,0.2,0.1,0.4
			s0,0.2-0.1,0.4c0,0.1-0.1,0.2-0.2,0.3c-0.1,0.1-0.2,0.1-0.3,0.2c-0.1,0-0.2,0.1-0.4,0.1c-0.1,0-0.2,0-0.4-0.1
			c-0.1,0-0.2-0.1-0.3-0.2c-0.1-0.1-0.1-0.2-0.2-0.3c0-0.1-0.1-0.2-0.1-0.4c0-0.1,0-0.3,0.1-0.4c0-0.1,0.1-0.2,0.2-0.3
			c0.1-0.1,0.2-0.1,0.3-0.2C30.9,80,31.1,80,31.2,80z"/>
		<path class="st0" d="M41.1,70.1V74h-0.3c-0.1-0.7-0.3-1.3-0.5-1.8c-0.1-0.2-0.3-0.4-0.5-0.6s-0.4-0.3-0.6-0.5
			c-0.2-0.1-0.5-0.2-0.7-0.3c-0.3-0.1-0.5-0.1-0.8-0.1s-0.5,0-0.8,0.1c-0.2,0.1-0.5,0.2-0.6,0.4c-0.2,0.2-0.3,0.3-0.4,0.6
			s-0.1,0.4-0.1,0.6c0,0.3,0.1,0.6,0.2,0.8c0.1,0.2,0.3,0.4,0.6,0.6s0.5,0.4,0.9,0.6c0.3,0.2,0.7,0.4,1.1,0.6
			c0.4,0.2,0.9,0.5,1.3,0.7c0.4,0.2,0.8,0.5,1.1,0.8s0.6,0.6,0.7,0.9c0.2,0.4,0.3,0.8,0.3,1.3c0,0.4-0.1,0.8-0.3,1.2
			c-0.2,0.4-0.4,0.7-0.7,1s-0.7,0.5-1.1,0.7c-0.4,0.2-0.9,0.3-1.4,0.3c-0.2,0-0.4,0-0.5,0s-0.3,0-0.4,0c-0.1,0-0.3,0-0.4-0.1
			c-0.1,0-0.3-0.1-0.5-0.2c-0.1,0-0.3-0.1-0.4-0.1c-0.1,0-0.3-0.1-0.4-0.1s-0.2,0-0.3-0.1c-0.1,0-0.1,0-0.2,0c-0.1,0-0.2,0-0.3,0.1
			s-0.1,0.3-0.2,0.5h-0.3V78h0.3c0.1,0.4,0.2,0.8,0.3,1.1c0.1,0.3,0.2,0.6,0.3,0.8c0.1,0.2,0.3,0.4,0.5,0.6s0.4,0.3,0.7,0.4
			c0.2,0.1,0.5,0.2,0.8,0.3c0.3,0.1,0.6,0.1,0.9,0.1c0.3,0,0.7,0,0.9-0.1c0.3-0.1,0.5-0.2,0.7-0.4c0.2-0.2,0.3-0.4,0.4-0.6
			c0.1-0.2,0.2-0.5,0.2-0.7c0-0.4-0.1-0.7-0.2-0.9s-0.4-0.5-0.6-0.7c-0.3-0.2-0.5-0.4-0.9-0.6c-0.3-0.2-0.7-0.4-1.1-0.6
			c-0.4-0.2-0.8-0.5-1.2-0.7s-0.7-0.5-1-0.7s-0.5-0.6-0.7-0.9s-0.3-0.8-0.3-1.2c0-0.4,0.1-0.8,0.2-1.1c0.2-0.4,0.4-0.7,0.7-0.9
			c0.3-0.3,0.6-0.5,1-0.6c0.4-0.2,0.8-0.2,1.3-0.2c0.6,0,1.2,0.1,1.9,0.4c0.3,0.1,0.5,0.2,0.7,0.2c0.1,0,0.3,0,0.4-0.1
			c0.1-0.1,0.2-0.3,0.2-0.5h0.1V70.1z"/>
		<path class="st0" d="M46.4,71v4.5h2.5c0.4,0,0.7,0,0.9-0.1s0.4-0.2,0.5-0.3c0.1-0.1,0.2-0.3,0.3-0.5c0-0.2,0.1-0.4,0.1-0.7H51v3.9
			h-0.3c0-0.3-0.1-0.5-0.1-0.7s-0.1-0.3-0.1-0.4s-0.1-0.2-0.2-0.3c-0.1-0.1-0.2-0.1-0.3-0.2s-0.3-0.1-0.4-0.1c-0.2,0-0.4,0-0.6,0
			h-2.5v3.7c0,0.5,0,0.8,0.1,0.9c0,0,0,0.1,0.1,0.1l0.1,0.1c0.1,0,0.1,0.1,0.2,0.1c0.1,0,0.2,0,0.4,0h1.9c0.3,0,0.6,0,0.8,0
			s0.4-0.1,0.6-0.1c0.2,0,0.3-0.1,0.4-0.2c0.1-0.1,0.3-0.2,0.4-0.3c0.2-0.2,0.3-0.4,0.5-0.6c0.2-0.3,0.4-0.6,0.5-0.9h0.3l-1,2.8
			h-8.7v-0.3h0.4c0.1,0,0.2,0,0.3,0s0.2-0.1,0.3-0.1s0.2-0.1,0.3-0.2s0.1-0.2,0.2-0.3c0.1-0.2,0.1-0.5,0.1-1.1v-7.3
			c0-0.7-0.1-1.2-0.2-1.3c-0.2-0.2-0.5-0.3-1-0.3h-0.4v-0.3h8.7V73h-0.2c-0.1-0.3-0.1-0.5-0.2-0.7c-0.1-0.2-0.1-0.4-0.2-0.5
			s-0.2-0.2-0.3-0.3c-0.1-0.1-0.2-0.1-0.4-0.2C50.4,71,50,71,49.5,71H46.4z"/>
		<path class="st0" d="M53.5,81.6v-0.3h0.4c0.5,0,0.8-0.2,1-0.5c0.1-0.2,0.2-0.6,0.2-1.2v-7.3c0-0.7-0.1-1.2-0.2-1.3
			c-0.2-0.2-0.5-0.4-1-0.4h-0.4v-0.3h4.6c1.7,0,3,0.2,3.8,0.6c0.9,0.4,1.6,1,2.1,1.9c0.5,0.9,0.8,1.9,0.8,3.1c0,0.8-0.1,1.6-0.4,2.3
			c-0.3,0.7-0.7,1.3-1.2,1.8s-1.2,0.9-2,1.2c-0.8,0.3-1.7,0.4-2.7,0.4C58.5,81.6,53.5,81.6,53.5,81.6z M56.7,80.8
			C57.4,81,58,81,58.5,81c0.6,0,1.2-0.1,1.8-0.4s1-0.6,1.4-1s0.7-1,0.9-1.6s0.4-1.2,0.4-2s-0.1-1.5-0.3-2.1s-0.5-1.2-0.9-1.6
			s-0.9-0.8-1.4-1s-1.3-0.3-2-0.3c-0.2,0-0.5,0-0.8,0.1c-0.3,0-0.6,0.1-0.9,0.2V80.8z"/>
		<path class="st0" d="M65.8,81.6v-0.3h0.4c0.5,0,0.8-0.2,1-0.5c0.1-0.2,0.2-0.6,0.2-1.2v-7.3c0-0.7-0.1-1.2-0.2-1.3
			c-0.2-0.2-0.5-0.4-1-0.4h-0.4v-0.3h4.6c1.7,0,3,0.2,3.8,0.6c0.9,0.4,1.6,1,2.1,1.9s0.8,1.9,0.8,3.1c0,0.8-0.1,1.6-0.4,2.3
			c-0.3,0.7-0.7,1.3-1.2,1.8s-1.2,0.9-2,1.2c-0.8,0.3-1.7,0.4-2.7,0.4C70.8,81.6,65.8,81.6,65.8,81.6z M69,80.8
			c0.7,0.2,1.3,0.2,1.8,0.2c0.6,0,1.2-0.1,1.8-0.4s1-0.6,1.4-1s0.7-1,0.9-1.6c0.2-0.6,0.3-1.3,0.3-2.1c0-0.8-0.1-1.5-0.3-2.1
			c-0.2-0.6-0.5-1.2-0.9-1.6s-0.9-0.8-1.4-1C72,71.1,71.4,71,70.7,71c-0.2,0-0.5,0-0.8,0.1c-0.3,0-0.6,0.1-0.9,0.2
			C69,71.3,69,80.8,69,80.8z"/>
		<path class="st0" d="M83.1,81.3v0.3h-4.8v-0.3h0.4c0.5,0,0.8-0.1,1-0.4c0.1-0.2,0.2-0.6,0.2-1.3v-7.3c0-0.3,0-0.5,0-0.6
			s0-0.3-0.1-0.4c0-0.1-0.1-0.2-0.1-0.3c-0.1-0.1-0.1-0.1-0.2-0.2c-0.2-0.1-0.5-0.2-0.8-0.2h-0.4v-0.3h4.8v0.3h-0.4
			c-0.5,0-0.8,0.1-1,0.4c-0.1,0.2-0.2,0.6-0.2,1.3v7.3c0,0.3,0,0.5,0,0.6c0,0.2,0,0.3,0.1,0.4s0.1,0.2,0.1,0.3
			c0.1,0.1,0.1,0.1,0.2,0.2c0.2,0.1,0.5,0.2,0.8,0.2H83.1z"/>
	</g>
	<g>
		<path class="st0" d="M14.5,90.8c-0.3-0.2-0.5-0.4-0.7-0.6c-0.2-0.3-0.2-0.6-0.2-0.9s0.1-0.6,0.2-0.9c0.2-0.3,0.4-0.5,0.7-0.6
			c0.3-0.2,0.6-0.2,1-0.2c0.3,0,0.5,0,0.8,0.1c0.2,0.1,0.4,0.2,0.6,0.4l-0.4,0.4c-0.3-0.3-0.6-0.4-0.9-0.4c-0.2,0-0.5,0.1-0.6,0.2
			c-0.2,0.1-0.3,0.2-0.4,0.4s-0.2,0.4-0.2,0.6s0.1,0.4,0.2,0.6c0.1,0.2,0.3,0.3,0.4,0.4c0.2,0.1,0.4,0.2,0.6,0.2
			c0.4,0,0.7-0.1,0.9-0.4l0.4,0.4c-0.2,0.2-0.4,0.3-0.6,0.4C16,91,15.7,91,15.4,91C15.1,91,14.8,91,14.5,90.8z"/>
		<path class="st0" d="M18,90.8c-0.3-0.2-0.5-0.4-0.7-0.6c-0.2-0.3-0.2-0.6-0.2-0.9s0.1-0.6,0.2-0.9c0.2-0.3,0.4-0.5,0.7-0.6
			c0.3-0.2,0.6-0.2,1-0.2s0.7,0.1,1,0.2c0.3,0.2,0.5,0.4,0.7,0.6c0.2,0.3,0.2,0.6,0.2,0.9s-0.1,0.6-0.2,0.9
			c-0.2,0.3-0.4,0.5-0.7,0.6C19.7,91,19.3,91,19,91C18.6,91,18.3,91,18,90.8z M19.6,90.3c0.2-0.1,0.3-0.3,0.4-0.4
			c0.1-0.2,0.2-0.4,0.2-0.6s-0.1-0.4-0.2-0.6s-0.3-0.3-0.4-0.4C19.4,88.1,19.2,88,19,88s-0.4,0.1-0.6,0.2s-0.3,0.3-0.4,0.4
			c-0.1,0.2-0.2,0.4-0.2,0.6s0.1,0.4,0.2,0.6s0.3,0.3,0.4,0.4c0.2,0.1,0.4,0.2,0.6,0.2C19.2,90.5,19.4,90.4,19.6,90.3z"/>
		<path class="st0" d="M24.7,91v-2.3l-1.1,1.9h-0.3l-1.1-1.9V91h-0.6v-3.5h0.5l1.4,2.3l1.4-2.3h0.5V91H24.7z"/>
		<path class="st0" d="M29.5,91v-2.3l-1.1,1.9h-0.3L27,88.7V91h-0.6v-3.5h0.5l1.4,2.3l1.4-2.3h0.5V91H29.5z"/>
		<path class="st0" d="M31,87.5h0.6V91H31V87.5z"/>
		<path class="st0" d="M32.9,90.9c-0.3-0.1-0.4-0.2-0.6-0.3l0.2-0.5c0.1,0.1,0.3,0.2,0.5,0.3c0.2,0.1,0.4,0.1,0.6,0.1
			c0.3,0,0.5,0,0.6-0.1s0.2-0.2,0.2-0.3c0-0.1,0-0.2-0.1-0.2c-0.1-0.1-0.2-0.1-0.3-0.2c-0.1,0-0.3-0.1-0.4-0.1
			c-0.3-0.1-0.5-0.1-0.6-0.2c-0.2-0.1-0.3-0.2-0.4-0.3c-0.1-0.1-0.2-0.3-0.2-0.5s0.1-0.4,0.2-0.5c0.1-0.2,0.3-0.3,0.5-0.4
			s0.5-0.1,0.8-0.1c0.2,0,0.4,0,0.6,0.1c0.2,0.1,0.4,0.1,0.5,0.2l-0.2,0.5c-0.2-0.1-0.3-0.2-0.5-0.2C34.1,88,34,88,33.8,88
			c-0.3,0-0.4,0-0.6,0.1c-0.1,0.1-0.2,0.2-0.2,0.3c0,0.1,0,0.2,0.1,0.2c0.1,0.1,0.2,0.1,0.3,0.1s0.3,0.1,0.4,0.1
			c0.3,0.1,0.5,0.1,0.6,0.2c0.2,0.1,0.3,0.2,0.4,0.3c0.1,0.1,0.2,0.3,0.2,0.5s-0.1,0.4-0.2,0.5c-0.1,0.2-0.3,0.3-0.5,0.4
			c0,0.3-0.3,0.3-0.6,0.3S33.2,91,32.9,90.9z"/>
		<path class="st0" d="M36.1,90.9c-0.3-0.1-0.4-0.2-0.6-0.3l0.2-0.5c0.1,0.1,0.3,0.2,0.5,0.3c0.2,0.1,0.4,0.1,0.6,0.1
			c0.3,0,0.5,0,0.6-0.1s0.2-0.2,0.2-0.3c0-0.1,0-0.2-0.1-0.2c-0.1-0.1-0.2-0.1-0.3-0.2c-0.1,0-0.3-0.1-0.4-0.1
			c-0.3-0.1-0.5-0.1-0.6-0.2c-0.2-0.1-0.3-0.2-0.4-0.3c-0.1-0.1-0.2-0.3-0.2-0.5s0.1-0.4,0.2-0.5c0.1-0.2,0.3-0.3,0.5-0.4
			s0.5-0.1,0.8-0.1c0.2,0,0.4,0,0.6,0.1c0.2,0.1,0.4,0.1,0.5,0.2L38,88.4c-0.2-0.1-0.3-0.2-0.5-0.2s-0.3-0.1-0.5-0.1
			c-0.3,0-0.4,0-0.6,0.1c-0.1,0.1-0.2,0.2-0.2,0.3c0,0.1,0,0.2,0.1,0.2c0.1,0.1,0.2,0.1,0.3,0.1s0.3,0.1,0.4,0.1
			c0.3,0.1,0.5,0.1,0.6,0.2c0.2,0.1,0.3,0.2,0.4,0.3c0.1,0.1,0.2,0.3,0.2,0.5s-0.1,0.4-0.2,0.5c-0.1,0.2-0.3,0.3-0.5,0.4
			C37.4,91,37.1,91,36.8,91C36.6,91,36.3,91,36.1,90.9z"/>
		<path class="st0" d="M41.1,90.2h-1.7L39.1,91h-0.7l1.6-3.5h0.6l1.6,3.5h-0.7L41.1,90.2z M40.9,89.7l-0.7-1.5l-0.7,1.5H40.9z"/>
		<path class="st0" d="M42.6,87.5h0.6V91h-0.6V87.5z"/>
		<path class="st0" d="M46.5,91l-0.7-1h-0.1h-0.8v1h-0.6v-3.5h1.4c0.3,0,0.6,0,0.8,0.1s0.4,0.2,0.5,0.4c0.1,0.2,0.2,0.4,0.2,0.7
			c0,0.3-0.1,0.5-0.2,0.7c-0.1,0.2-0.3,0.3-0.5,0.4l0.8,1.1h-0.8V91z M46.2,88.2c-0.1-0.1-0.4-0.2-0.6-0.2h-0.8v1.4h0.8
			c0.3,0,0.5-0.1,0.6-0.2s0.2-0.3,0.2-0.5C46.5,88.5,46.4,88.4,46.2,88.2z"/>
		<path class="st0" d="M50.4,90.4V91h-2.6v-3.5h2.5V88h-1.9v1h1.7v0.5h-1.7v1L50.4,90.4L50.4,90.4z"/>
		<path class="st0" d="M54.8,90.2h-1.7L52.7,91H52l1.6-3.5h0.6l1.6,3.5h-0.7L54.8,90.2z M54.6,89.7l-0.7-1.5l-0.7,1.5H54.6z"/>
		<path class="st0" d="M56.6,90.6c-0.3-0.3-0.4-0.7-0.4-1.2v-2h0.6v1.9c0,0.7,0.3,1,0.9,1c0.6,0,0.9-0.3,0.9-1v-1.9h0.6v2
			c0,0.5-0.1,0.9-0.4,1.2c-0.3,0.3-0.6,0.4-1.1,0.4C57.2,91,56.8,90.9,56.6,90.6z"/>
		<path class="st0" d="M62.3,91l-0.9-1.3l-1,1.3h-0.7l1.3-1.8l-1.2-1.7h0.7l0.9,1.2l0.9-1.2H63l-1.2,1.7L63,91H62.3z"/>
		<path class="st0" d="M65.5,90.8c-0.3-0.2-0.5-0.4-0.7-0.6c-0.2-0.3-0.2-0.6-0.2-0.9s0.1-0.6,0.2-0.9c0.2-0.3,0.4-0.5,0.7-0.6
			c0.3-0.2,0.6-0.2,1-0.2c0.3,0,0.5,0,0.8,0.1c0.2,0.1,0.4,0.2,0.6,0.4l-0.4,0.4c-0.3-0.3-0.6-0.4-0.9-0.4c-0.2,0-0.5,0.1-0.6,0.2
			c-0.2,0.1-0.3,0.2-0.4,0.4c-0.1,0.2-0.2,0.4-0.2,0.6s0.1,0.4,0.2,0.6s0.3,0.3,0.4,0.4c0.2,0.1,0.4,0.2,0.6,0.2
			c0.4,0,0.7-0.1,0.9-0.4l0.4,0.4c-0.2,0.2-0.4,0.3-0.6,0.4C67,91,66.8,91,66.5,91C66.1,91,65.8,91,65.5,90.8z"/>
		<path class="st0" d="M69.1,90.8c-0.3-0.2-0.5-0.4-0.7-0.6c-0.2-0.3-0.2-0.6-0.2-0.9s0.1-0.6,0.2-0.9c0.2-0.3,0.4-0.5,0.7-0.6
			c0.3-0.2,0.6-0.2,1-0.2s0.7,0.1,1,0.2c0.3,0.2,0.5,0.4,0.7,0.6C72,88.7,72,89,72,89.3s-0.1,0.6-0.2,0.9c-0.2,0.3-0.4,0.5-0.7,0.6
			c-0.3,0.2-0.6,0.2-1,0.2S69.4,91,69.1,90.8z M70.7,90.3c0.2-0.1,0.3-0.3,0.4-0.4c0.1-0.2,0.2-0.4,0.2-0.6s-0.1-0.4-0.2-0.6
			s-0.3-0.3-0.4-0.4c-0.2-0.1-0.4-0.2-0.6-0.2s-0.4,0.1-0.6,0.2s-0.3,0.3-0.4,0.4c-0.1,0.2-0.2,0.4-0.2,0.6s0.1,0.4,0.2,0.6
			s0.3,0.3,0.4,0.4c0.2,0.1,0.4,0.2,0.6,0.2C70.3,90.5,70.5,90.4,70.7,90.3z"/>
		<path class="st0" d="M75.8,91v-2.3l-1.1,1.9h-0.3l-1.1-1.9V91h-0.6v-3.5h0.5l1.4,2.3l1.4-2.3h0.5V91H75.8z"/>
		<path class="st0" d="M79.6,87.7c0.2,0.1,0.4,0.2,0.5,0.4c0.1,0.2,0.2,0.4,0.2,0.7c0,0.3-0.1,0.5-0.2,0.7s-0.3,0.3-0.5,0.4
			S79.1,90,78.8,90H78v1h-0.6v-3.5h1.4C79.1,87.5,79.4,87.6,79.6,87.7z M79.4,89.3c0.1-0.1,0.2-0.3,0.2-0.5s-0.1-0.4-0.2-0.5
			s-0.4-0.2-0.6-0.2H78v1.4h0.8C79,89.4,79.3,89.4,79.4,89.3z"/>
		<path class="st0" d="M81.5,88.1h-1.2v-0.5h3v0.5h-1.2V91h-0.6C81.5,91,81.5,88.1,81.5,88.1z"/>
		<path class="st0" d="M86.4,90.4V91h-2.6v-3.5h2.5V88h-1.9v1h1.7v0.5h-1.7v1L86.4,90.4L86.4,90.4z"/>
		<path class="st0" d="M25.3,96.8c-0.3-0.2-0.5-0.4-0.7-0.6c-0.2-0.3-0.2-0.6-0.2-0.9s0.1-0.6,0.2-0.9c0.2-0.3,0.4-0.5,0.7-0.6
			c0.3-0.2,0.6-0.2,1-0.2c0.3,0,0.5,0,0.8,0.1c0.2,0.1,0.4,0.2,0.6,0.4l-0.4,0.4c-0.3-0.3-0.6-0.4-0.9-0.4c-0.2,0-0.5,0.1-0.6,0.2
			c-0.2,0.1-0.3,0.2-0.4,0.4C25.1,94.8,25,95,25,95.2s0.1,0.4,0.2,0.6s0.3,0.3,0.4,0.4c0.2,0.1,0.4,0.2,0.6,0.2
			c0.4,0,0.7-0.1,0.9-0.4l0.4,0.4c-0.2,0.2-0.4,0.3-0.6,0.4C26.8,97,26.5,97,26.2,97C25.9,97,25.5,96.9,25.3,96.8z"/>
		<path class="st0" d="M28.8,96.8c-0.3-0.2-0.5-0.4-0.7-0.6c-0.2-0.3-0.2-0.6-0.2-0.9s0.1-0.6,0.2-0.9c0.2-0.3,0.4-0.5,0.7-0.6
			c0.3-0.2,0.6-0.2,1-0.2s0.7,0.1,1,0.2c0.3,0.2,0.5,0.4,0.7,0.6c0.2,0.3,0.2,0.6,0.2,0.9s-0.1,0.6-0.2,0.9
			c-0.2,0.3-0.4,0.5-0.7,0.6c-0.3,0.2-0.6,0.2-1,0.2S29.1,96.9,28.8,96.8z M30.4,96.3c0.2-0.1,0.3-0.3,0.4-0.4
			c0.1-0.2,0.2-0.4,0.2-0.6s-0.1-0.4-0.2-0.6s-0.3-0.3-0.4-0.4C30.2,94,30,94,29.8,94s-0.4,0.1-0.6,0.2s-0.3,0.3-0.4,0.4
			c-0.1,0.2-0.2,0.4-0.2,0.6s0.1,0.4,0.2,0.6s0.3,0.3,0.4,0.4c0.2,0.1,0.4,0.2,0.6,0.2C30,96.4,30.2,96.4,30.4,96.3z"/>
		<path class="st0" d="M35.5,97v-2.3l-1.1,1.9h-0.3L33,94.7V97h-0.6v-3.5h0.5l1.4,2.3l1.4-2.3h0.5V97H35.5z"/>
		<path class="st0" d="M39.3,93.6c0.2,0.1,0.4,0.2,0.5,0.4c0.1,0.2,0.2,0.4,0.2,0.7c0,0.3-0.1,0.5-0.2,0.7c-0.1,0.2-0.3,0.3-0.5,0.4
			S38.8,96,38.5,96h-0.8v1h-0.6v-3.5h1.4C38.8,93.5,39.1,93.5,39.3,93.6z M39.1,95.2c0.1-0.1,0.2-0.3,0.2-0.5s-0.1-0.4-0.2-0.5
			C39,94.1,38.8,94,38.5,94h-0.8v1.4h0.8C38.8,95.4,39,95.3,39.1,95.2z"/>
		<path class="st0" d="M41.2,94H40v-0.5h3V94h-1.2v3h-0.6V94z"/>
		<path class="st0" d="M45.6,96.2h-1.7L43.5,97h-0.7l1.6-3.5H45l1.6,3.5H46L45.6,96.2z M45.4,95.6l-0.7-1.5L44,95.6H45.4z"/>
		<path class="st0" d="M50,95.5c0.1,0.1,0.2,0.3,0.2,0.5c0,0.3-0.1,0.5-0.3,0.7s-0.6,0.2-1,0.2h-1.7v-3.5h1.6c0.4,0,0.7,0.1,0.9,0.2
			c0.2,0.2,0.3,0.4,0.3,0.7c0,0.2,0,0.3-0.1,0.5c-0.1,0.1-0.2,0.2-0.3,0.3C49.7,95.2,49.9,95.3,50,95.5z M47.7,94v1h0.9
			c0.2,0,0.4,0,0.5-0.1s0.2-0.2,0.2-0.4c0-0.2-0.1-0.3-0.2-0.4S48.9,94,48.6,94H47.7z M49.5,95.9c0-0.3-0.3-0.5-0.8-0.5h-1v1h1
			C49.3,96.5,49.5,96.3,49.5,95.9z"/>
		<path class="st0" d="M50.9,93.5h0.6v2.9h1.8V97h-2.5v-3.5H50.9z"/>
		<path class="st0" d="M56.5,96.4V97h-2.6v-3.5h2.5V94h-1.9v0.9h1.7v0.5h-1.7v1H56.5z"/>
		<path class="st0" d="M60.8,96.2h-1.7L58.7,97H58l1.6-3.5h0.6l1.6,3.5h-0.7L60.8,96.2z M60.6,95.6l-0.7-1.5l-0.7,1.5H60.6z"/>
		<path class="st0" d="M64.6,95.2h0.6v1.4c-0.2,0.1-0.4,0.3-0.6,0.3C64.4,97,64.1,97,63.9,97c-0.4,0-0.7-0.1-1-0.2
			c-0.3-0.2-0.5-0.4-0.7-0.6C62,95.9,62,95.6,62,95.3s0.1-0.6,0.2-0.9c0.2-0.3,0.4-0.5,0.7-0.6c0.3-0.2,0.6-0.2,1-0.2
			c0.3,0,0.6,0,0.8,0.1c0.2,0.1,0.4,0.2,0.6,0.4l-0.4,0.4c-0.3-0.3-0.6-0.4-1-0.4c-0.2,0-0.5,0.1-0.7,0.2s-0.3,0.2-0.4,0.4
			c-0.1,0.2-0.2,0.4-0.2,0.6s0.1,0.4,0.2,0.6c0.1,0.2,0.3,0.3,0.4,0.4c0.2,0.1,0.4,0.2,0.6,0.2c0.3,0,0.5-0.1,0.7-0.2L64.6,95.2
			L64.6,95.2z"/>
		<path class="st0" d="M68.3,97l-0.7-1h-0.1h-0.8v1h-0.6v-3.5h1.4c0.3,0,0.6,0,0.8,0.1c0.2,0.1,0.4,0.2,0.5,0.4
			c0.1,0.2,0.2,0.4,0.2,0.7c0,0.3-0.1,0.5-0.2,0.7s-0.3,0.3-0.5,0.4L69,97H68.3z M68.1,94.2C68,94.1,67.8,94,67.5,94h-0.8v1.4h0.8
			c0.3,0,0.5-0.1,0.6-0.2s0.2-0.3,0.2-0.5C68.3,94.5,68.3,94.3,68.1,94.2z"/>
		<path class="st0" d="M72.3,96.4V97h-2.6v-3.5h2.5V94h-1.9v0.9H72v0.5h-1.7v1H72.3z M71.2,92.5H72l-0.9,0.7h-0.5L71.2,92.5z"/>
		<path class="st0" d="M75.6,96.4V97H73v-3.5h2.5V94h-1.9v0.9h1.7v0.5h-1.7v1H75.6z"/>
	</g>
	<path class="st0" d="M78.4,46.4C74,57.6,63.3,65.5,50.8,65.5c-16.4,0-29.7-13.7-29.7-30.6c0-5.4,1.4-10.5,3.8-14.9
		c-1.4,3.5-2.1,7.4-2.1,11.4C22.8,48.3,36.1,62,52.5,62C63.6,62,73.3,55.7,78.4,46.4z"/>
	<path class="st2" d="M71.9,13.6C67.3,9,61,6.1,54,6.1c-14.1,0-25.6,11.8-25.6,26.3c0,5.9,1.9,11.3,5,15.7c-0.3-0.3-0.6-0.6-0.9-1
		C29.1,42.6,27,36.9,27,30.7C27,16.2,38.5,4.4,52.6,4.4c7.4,0,14.1,3.3,18.8,8.5l0.1,0.1C71.6,13.2,71.8,13.4,71.9,13.6z"/>
	<path class="st2" d="M78.9,44.9c-0.2,0.5-0.3,1-0.5,1.5l0,0C73.3,55.7,63.6,62,52.5,62c-16.4,0-29.7-13.7-29.7-30.6
		c0-4,0.8-7.9,2.1-11.4l0,0l0,0c0.2-0.4,0.4-0.8,0.6-1.1c-1,3.1-1.6,6.5-1.6,9.9c0,16.9,13.3,30.6,29.7,30.6
		C64.3,59.4,73.7,53.6,78.9,44.9z"/>
	<path class="st0" d="M71.4,12.9C66.7,7.7,60,4.4,52.6,4.4C38.5,4.4,27,16.2,27,30.7c0,6.2,2.1,11.9,5.5,16.3
		c-4.2-4.7-6.7-10.9-6.7-17.8c0-8.1,3.6-15.4,9.2-20.2c4.5-3.7,10.2-6,16.4-6C59.5,3,66.7,6.9,71.4,12.9z"/>
</g>
</svg>
